<svg xmlns="http://www.w3.org/2000/svg" xmlns:xlink="http://www.w3.org/1999/xlink" width="1080" zoomAndPan="magnify" viewBox="0 0 810 809.999993" height="1080" preserveAspectRatio="xMidYMid meet" version="1.0"><path fill="#b84c65" d="M 687.914062 143.113281 C 628.960938 110.816406 544.164062 91.167969 505.226562 83.433594 C 493.398438 81.070312 481.117188 82.613281 470.472656 88.074219 C 437.808594 104.8125 404.972656 100.992188 404.972656 100.992188 C 404.972656 100.992188 372.128906 104.8125 339.464844 88.074219 C 328.726562 82.613281 316.445312 81.070312 304.710938 83.433594 C 265.765625 91.257812 180.609375 110.910156 121.746094 143.292969 C 118.5625 145.023438 117.015625 148.664062 117.929688 152.121094 L 141.582031 243.273438 C 144.492188 254.558594 155.046875 262.109375 166.691406 261.199219 L 212.636719 257.742188 C 226.554688 256.648438 238.292969 267.933594 237.839844 281.851562 C 222.1875 391.109375 214.90625 492.636719 228.101562 575.335938 C 227.648438 588.25 232.929688 600.808594 242.480469 609.539062 C 262.222656 627.644531 296.703125 661.847656 316.261719 695.785156 C 320.269531 702.699219 329.726562 710.339844 337.1875 712.976562 C 382.585938 729.082031 426.257812 727.714844 471.566406 713.523438 C 481.117188 710.519531 489.214844 704.058594 494.21875 695.417969 C 513.777344 661.667969 548.074219 627.644531 567.730469 609.539062 C 577.28125 600.714844 582.5625 588.25 582.109375 575.242188 C 594.386719 492.910156 588.019531 392.023438 572.371094 281.757812 C 571.917969 267.839844 583.65625 256.5625 597.570312 257.648438 L 643.519531 261.105469 C 655.070312 262.015625 665.625 254.46875 668.625 243.1875 L 692.1875 152.484375 C 692.921875 148.847656 691.28125 145.023438 687.914062 143.113281 " fill-opacity="1" fill-rule="nonzero"/><path fill="#ff94ac" d="M 420.4375 678.773438 C 418.613281 670.765625 408.695312 673.675781 404.972656 678.773438 C 401.242188 673.675781 391.324219 670.765625 389.5 678.773438 C 387.679688 686.773438 404.972656 694.964844 404.972656 694.964844 C 404.972656 694.964844 422.25 686.773438 420.4375 678.773438 Z M 550.351562 214.625 C 551.539062 218.808594 552.902344 222.992188 554.355469 226.902344 C 554.808594 228.179688 556.085938 228.992188 557.359375 228.992188 C 557.726562 228.992188 558.085938 228.90625 558.453125 228.8125 C 560.089844 228.179688 560.996094 226.355469 560.363281 224.628906 C 558.90625 220.804688 557.632812 216.894531 556.539062 212.800781 C 556.085938 211.074219 554.269531 210.070312 552.539062 210.621094 C 550.898438 211.074219 549.898438 212.894531 550.351562 214.625 Z M 511.140625 135.109375 C 511.507812 135.109375 511.867188 135.015625 512.320312 134.925781 C 513.964844 134.289062 514.777344 132.46875 514.238281 130.738281 C 512.6875 126.648438 511.320312 122.371094 510.140625 118.734375 C 509.589844 117.003906 507.777344 116.097656 506.132812 116.636719 C 504.40625 117.183594 503.496094 119.007812 504.046875 120.640625 C 505.226562 124.371094 506.679688 128.742188 508.230469 133.015625 C 508.589844 134.382812 509.867188 135.109375 511.140625 135.109375 Z M 503.679688 627.464844 C 504.320312 628.191406 505.226562 628.550781 506.132812 628.550781 C 506.863281 628.550781 507.589844 628.277344 508.230469 627.738281 C 511.234375 625.09375 514.597656 622.640625 518.242188 620.277344 C 519.691406 619.273438 520.148438 617.273438 519.148438 615.816406 C 518.148438 614.363281 516.144531 613.902344 514.691406 614.902344 C 510.867188 617.359375 507.320312 620.089844 504.046875 622.820312 C 502.683594 624.007812 502.496094 626.097656 503.679688 627.464844 Z M 551.539062 188.421875 C 551.265625 186.691406 549.625 185.417969 547.894531 185.691406 C 546.167969 185.964844 544.890625 187.601562 545.164062 189.328125 C 545.804688 193.605469 546.535156 197.878906 547.347656 202.0625 C 547.628906 203.613281 548.988281 204.613281 550.53125 204.613281 C 550.71875 204.613281 550.992188 204.613281 551.171875 204.527344 C 552.902344 204.160156 553.996094 202.429688 553.722656 200.703125 C 552.8125 196.789062 552.082031 192.605469 551.539062 188.421875 Z M 448.546875 663.214844 C 446.820312 662.761719 445.089844 663.761719 444.542969 665.398438 C 444.089844 667.128906 445.089844 668.855469 446.726562 669.402344 C 450.910156 670.585938 454.824219 671.945312 458.464844 673.402344 C 458.828125 673.585938 459.28125 673.675781 459.648438 673.675781 C 460.921875 673.675781 462.105469 672.945312 462.652344 671.671875 C 463.285156 670.035156 462.558594 668.128906 460.921875 667.488281 C 457.097656 665.945312 453.007812 664.492188 448.546875 663.214844 Z M 523.96875 157.308594 C 524.789062 157.308594 525.515625 157.035156 526.15625 156.398438 C 527.425781 155.210938 527.519531 153.125 526.242188 151.847656 C 523.695312 149.121094 521.425781 145.9375 519.242188 142.023438 C 518.421875 140.476562 516.417969 139.929688 514.871094 140.75 C 513.324219 141.566406 512.773438 143.574219 513.597656 145.113281 C 515.964844 149.484375 518.601562 153.125 521.511719 156.214844 C 522.238281 156.941406 523.058594 157.308594 523.96875 157.308594 Z M 423.074219 658.210938 C 421.34375 657.9375 419.707031 659.210938 419.433594 661.027344 C 419.25 662.761719 420.4375 664.398438 422.25 664.671875 C 426.53125 665.21875 430.714844 665.851562 434.625 666.671875 C 434.8125 666.671875 435.085938 666.761719 435.265625 666.761719 C 436.816406 666.761719 438.082031 665.671875 438.449219 664.125 C 438.8125 662.394531 437.628906 660.667969 435.902344 660.394531 C 431.808594 659.484375 427.53125 658.757812 423.074219 658.210938 Z M 483.121094 85.34375 C 484.851562 86.070312 486.390625 86.984375 487.847656 88.167969 C 488.488281 88.621094 489.128906 88.894531 489.855469 88.894531 C 490.761719 88.894531 491.765625 88.441406 492.398438 87.710938 C 493.492188 86.34375 493.3125 84.253906 491.851562 83.160156 C 491.582031 82.980469 491.308594 82.707031 491.035156 82.527344 C 487.847656 82.707031 484.664062 83.253906 481.480469 83.980469 C 481.933594 84.527344 482.480469 85.078125 483.121094 85.34375 Z M 481.390625 686.960938 C 482.207031 686.960938 483.121094 686.59375 483.753906 685.960938 C 484.941406 684.6875 484.941406 682.589844 483.574219 681.410156 C 480.476562 678.5 476.839844 675.855469 472.835938 673.402344 C 471.292969 672.492188 469.292969 672.945312 468.382812 674.496094 C 467.46875 676.042969 467.925781 678.046875 469.472656 678.953125 C 473.109375 681.136719 476.386719 683.589844 479.117188 686.140625 C 479.75 686.6875 480.570312 686.960938 481.390625 686.960938 Z M 578.101562 257.101562 C 577.007812 255.648438 575.007812 255.46875 573.550781 256.46875 C 572.097656 257.558594 571.917969 259.558594 572.917969 261.015625 C 574.285156 262.742188 575.648438 264.472656 577.101562 266.207031 C 577.1875 266.292969 577.28125 266.386719 577.375 266.472656 C 578.738281 264.839844 580.285156 263.289062 582.015625 262.109375 C 582.015625 262.109375 582.015625 262.109375 582.015625 262.015625 C 580.652344 260.378906 579.378906 258.746094 578.101562 257.101562 Z M 527.519531 614.363281 C 528.066406 614.363281 528.519531 614.269531 528.972656 613.996094 C 532.335938 612.269531 535.976562 610.539062 540.433594 608.449219 C 542.074219 607.722656 542.800781 605.808594 542.074219 604.171875 C 541.347656 602.535156 539.433594 601.808594 537.796875 602.535156 C 533.25 604.625 529.425781 606.449219 525.96875 608.175781 C 524.429688 608.992188 523.789062 610.90625 524.609375 612.542969 C 525.242188 613.722656 526.335938 614.363281 527.519531 614.363281 Z M 570.007812 251.285156 C 571.550781 250.375 572.003906 248.375 571.09375 246.824219 C 569.007812 243.367188 567.003906 239.730469 565.183594 236 C 564.453125 234.359375 562.453125 233.722656 560.910156 234.453125 C 559.269531 235.179688 558.632812 237.179688 559.363281 238.730469 C 561.269531 242.640625 563.367188 246.550781 565.546875 250.1875 C 566.183594 251.191406 567.183594 251.738281 568.277344 251.738281 C 568.914062 251.832031 569.546875 251.644531 570.007812 251.285156 Z M 347.378906 671.21875 C 347.832031 671.21875 348.285156 671.132812 348.652344 670.945312 C 352.199219 669.402344 356.109375 668.035156 360.207031 666.851562 C 361.9375 666.398438 362.9375 664.578125 362.476562 662.941406 C 362.023438 661.214844 360.207031 660.214844 358.566406 660.667969 C 354.105469 661.847656 349.929688 663.304688 346.105469 665.03125 C 344.46875 665.757812 343.742188 667.675781 344.46875 669.308594 C 344.921875 670.492188 346.105469 671.21875 347.378906 671.21875 Z M 552.265625 603.265625 C 555.996094 601.621094 560.269531 599.621094 564.09375 597.4375 C 565.636719 596.53125 566.183594 594.621094 565.273438 593.074219 C 564.367188 591.523438 562.453125 590.976562 560.910156 591.890625 C 557.265625 593.980469 553.175781 595.894531 549.625 597.4375 C 547.988281 598.164062 547.261719 600.082031 547.988281 601.714844 C 548.535156 602.898438 549.71875 603.625 550.898438 603.625 C 551.351562 603.539062 551.8125 603.445312 552.265625 603.265625 Z M 548.804688 99.992188 C 548.441406 101.722656 549.535156 103.449219 551.351562 103.808594 C 551.539062 103.808594 551.8125 103.902344 551.992188 103.902344 C 553.449219 103.902344 554.808594 102.816406 555.175781 101.355469 C 555.996094 97.445312 556.539062 95.261719 556.539062 95.261719 C 554.449219 94.714844 552.355469 94.171875 550.265625 93.71875 C 550.171875 93.71875 549.625 95.988281 548.804688 99.992188 Z M 572.550781 590.070312 C 573.464844 590.070312 574.371094 589.710938 575.007812 588.976562 C 578.375 585.066406 580.285156 580.792969 580.832031 575.695312 C 581.011719 573.964844 579.738281 572.332031 578.011719 572.152344 C 576.28125 571.96875 574.644531 573.238281 574.464844 574.96875 C 574.097656 578.699219 572.644531 581.882812 570.1875 584.703125 C 569.007812 586.066406 569.1875 588.066406 570.460938 589.25 C 571.09375 589.796875 571.824219 590.070312 572.550781 590.070312 Z M 543.710938 176.503906 C 543.804688 178.230469 545.257812 179.503906 546.894531 179.503906 C 546.988281 179.503906 547.074219 179.503906 547.167969 179.503906 C 548.898438 179.324219 550.265625 177.777344 550.171875 176.046875 C 549.8125 171.949219 549.625 167.765625 549.535156 163.582031 C 549.445312 161.765625 547.988281 160.398438 546.261719 160.492188 C 545.078125 160.492188 544.078125 161.125 543.53125 162.125 C 540.707031 161.398438 537.976562 160.398438 535.613281 159.125 C 534.066406 158.308594 532.0625 158.945312 531.25 160.492188 C 530.429688 162.039062 531.070312 164.035156 532.609375 164.855469 C 535.886719 166.585938 539.433594 167.859375 543.257812 168.765625 C 543.4375 171.222656 543.53125 173.953125 543.710938 176.503906 Z M 484.390625 652.933594 C 482.753906 652.203125 480.84375 652.84375 480.117188 654.480469 C 478.296875 658.390625 476.660156 662.488281 475.207031 666.761719 C 474.65625 668.488281 475.566406 670.3125 477.207031 670.859375 C 477.566406 670.945312 477.933594 671.039062 478.207031 671.039062 C 479.570312 671.039062 480.84375 670.21875 481.300781 668.855469 C 482.660156 664.851562 484.210938 660.941406 485.9375 657.304688 C 486.671875 655.660156 485.9375 653.660156 484.390625 652.933594 Z M 546.261719 154.125 C 548.074219 154.125 549.535156 152.757812 549.535156 150.941406 C 549.625 146.84375 549.8125 142.566406 550.085938 138.382812 C 550.171875 136.566406 548.898438 135.109375 547.074219 134.925781 C 545.257812 134.835938 543.804688 136.113281 543.617188 137.925781 C 543.351562 142.207031 543.164062 146.570312 543.078125 150.753906 C 543.078125 152.667969 544.4375 154.125 546.261719 154.125 Z M 550.171875 109.910156 C 548.441406 109.636719 546.808594 110.816406 546.535156 112.640625 C 545.898438 116.824219 545.347656 121.101562 544.804688 125.375 C 544.617188 127.101562 545.898438 128.742188 547.628906 128.925781 C 547.714844 128.925781 547.894531 128.925781 547.988281 128.925781 C 549.625 128.925781 550.992188 127.742188 551.171875 126.101562 C 551.625 121.917969 552.171875 117.730469 552.8125 113.640625 C 553.175781 111.820312 551.898438 110.183594 550.171875 109.910156 Z M 487.484375 647.292969 C 488.035156 647.660156 488.667969 647.839844 489.214844 647.839844 C 490.308594 647.839844 491.308594 647.292969 491.945312 646.382812 C 494.21875 642.925781 496.675781 639.5625 499.40625 636.46875 C 500.585938 635.105469 500.40625 633.101562 499.132812 631.921875 C 497.769531 630.734375 495.769531 630.921875 494.582031 632.191406 C 491.671875 635.464844 488.941406 639.105469 486.578125 642.835938 C 485.578125 644.382812 485.9375 646.382812 487.484375 647.292969 Z M 496.308594 92.804688 C 494.769531 93.625 494.128906 95.628906 495.042969 97.175781 C 496.675781 100.171875 498.226562 103.808594 499.859375 108.542969 C 500.3125 109.910156 501.589844 110.726562 502.863281 110.726562 C 503.222656 110.726562 503.589844 110.636719 503.953125 110.542969 C 505.59375 109.910156 506.5 108.089844 505.953125 106.453125 C 504.136719 101.355469 502.496094 97.445312 500.679688 94.171875 C 499.859375 92.53125 497.953125 91.992188 496.308594 92.804688 Z M 266.226562 176.503906 C 266.40625 173.867188 266.585938 171.222656 266.679688 168.492188 C 270.496094 167.585938 274.046875 166.3125 277.324219 164.582031 C 278.875 163.769531 279.507812 161.851562 278.6875 160.21875 C 277.871094 158.667969 275.957031 158.035156 274.320312 158.855469 C 271.867188 160.125 269.222656 161.125 266.40625 161.851562 C 265.859375 160.945312 264.859375 160.3125 263.675781 160.21875 C 261.949219 160.21875 260.398438 161.578125 260.398438 163.308594 C 260.3125 167.492188 260.039062 171.769531 259.765625 175.773438 C 259.585938 177.503906 260.945312 179.140625 262.769531 179.230469 C 262.855469 179.230469 262.949219 179.230469 263.042969 179.230469 C 264.679688 179.503906 266.132812 178.230469 266.226562 176.503906 Z M 257.402344 210.621094 C 255.675781 210.164062 253.945312 211.167969 253.398438 212.800781 C 252.214844 216.804688 250.941406 220.804688 249.574219 224.628906 C 248.941406 226.261719 249.753906 228.179688 251.484375 228.8125 C 251.851562 228.992188 252.214844 228.992188 252.578125 228.992188 C 253.851562 228.992188 255.125 228.179688 255.582031 226.902344 C 257.035156 222.992188 258.398438 218.808594 259.585938 214.625 C 260.125 212.894531 259.132812 211.074219 257.402344 210.621094 Z M 371.398438 657.9375 C 369.671875 658.210938 368.394531 659.847656 368.664062 661.574219 C 368.945312 663.214844 370.304688 664.304688 371.855469 664.304688 C 372.035156 664.304688 372.128906 664.304688 372.308594 664.304688 C 376.21875 663.761719 380.402344 663.304688 384.683594 663.035156 C 386.496094 662.941406 387.773438 661.394531 387.679688 659.664062 C 387.589844 657.84375 386.042969 656.574219 384.316406 656.664062 C 379.855469 656.9375 375.492188 657.390625 371.398438 657.9375 Z M 259.945312 138.472656 C 260.21875 142.660156 260.398438 146.84375 260.492188 151.027344 C 260.492188 152.757812 261.949219 154.210938 263.675781 154.210938 L 263.769531 154.210938 C 265.585938 154.210938 266.953125 152.667969 266.953125 150.941406 C 266.859375 146.757812 266.679688 142.386719 266.40625 138.113281 C 266.3125 136.292969 264.765625 135.015625 262.949219 135.109375 C 261.128906 135.199219 259.765625 136.746094 259.945312 138.472656 Z M 263.496094 112.546875 C 263.222656 110.816406 261.582031 109.550781 259.859375 109.816406 C 258.128906 110.089844 256.855469 111.726562 257.128906 113.453125 C 257.761719 117.550781 258.308594 121.738281 258.765625 125.921875 C 258.945312 127.554688 260.3125 128.742188 261.949219 128.742188 C 262.042969 128.742188 262.222656 128.742188 262.316406 128.742188 C 264.039062 128.558594 265.3125 126.921875 265.132812 125.195312 C 264.679688 121.007812 264.128906 116.730469 263.496094 112.546875 Z M 262.675781 202.0625 C 263.496094 197.972656 264.222656 193.695312 264.859375 189.328125 C 265.132812 187.601562 263.855469 185.964844 262.128906 185.691406 C 260.398438 185.417969 258.765625 186.691406 258.492188 188.421875 C 257.945312 192.605469 257.214844 196.699219 256.402344 200.703125 C 256.035156 202.429688 257.128906 204.160156 258.945312 204.527344 C 259.132812 204.527344 259.398438 204.613281 259.585938 204.613281 C 261.039062 204.613281 262.402344 203.519531 262.675781 202.0625 Z M 492.125 692.234375 C 491.308594 690.6875 489.308594 690.050781 487.761719 690.960938 C 486.210938 691.78125 485.578125 693.78125 486.484375 695.332031 C 488.125 698.328125 488.488281 700.242188 488.488281 700.242188 C 488.582031 700.878906 488.941406 701.511719 489.308594 701.972656 C 491.035156 700.054688 492.492188 698.058594 493.855469 695.871094 C 493.398438 694.871094 492.851562 693.601562 492.125 692.234375 Z M 305.980469 110.457031 C 306.34375 110.542969 306.707031 110.636719 307.074219 110.636719 C 308.433594 110.636719 309.621094 109.816406 310.078125 108.457031 C 311.710938 103.722656 313.261719 100.085938 314.902344 97.082031 C 315.714844 95.535156 315.167969 93.53125 313.628906 92.71875 C 312.078125 91.898438 310.078125 92.445312 309.253906 93.988281 C 307.441406 97.355469 305.796875 101.175781 303.984375 106.273438 C 303.433594 108.089844 304.25 109.910156 305.980469 110.457031 Z M 320.082031 88.894531 C 320.816406 88.894531 321.542969 88.621094 322.082031 88.167969 C 323.539062 86.984375 325.085938 86.070312 326.816406 85.34375 C 327.542969 85.078125 328.089844 84.527344 328.449219 83.890625 C 325.359375 83.074219 322.175781 82.613281 318.898438 82.433594 C 318.625 82.613281 318.359375 82.800781 318.085938 83.074219 C 316.71875 84.164062 316.445312 86.164062 317.539062 87.621094 C 318.171875 88.441406 319.085938 88.894531 320.082031 88.894531 Z M 310.890625 631.921875 C 309.527344 633.101562 309.441406 635.105469 310.625 636.46875 C 313.351562 639.5625 315.808594 642.835938 318.085938 646.382812 C 318.71875 647.292969 319.722656 647.839844 320.816406 647.839844 C 321.449219 647.839844 321.996094 647.660156 322.539062 647.292969 C 324 646.292969 324.453125 644.289062 323.453125 642.835938 C 320.996094 639.105469 318.359375 635.558594 315.441406 632.191406 C 314.261719 630.921875 312.257812 630.734375 310.890625 631.921875 Z M 325.632812 652.933594 C 324 653.660156 323.359375 655.574219 324.085938 657.210938 C 325.816406 660.847656 327.363281 664.765625 328.726562 668.761719 C 329.179688 670.128906 330.453125 670.945312 331.820312 670.945312 C 332.183594 670.945312 332.546875 670.859375 332.824219 670.765625 C 334.550781 670.21875 335.457031 668.402344 334.824219 666.671875 C 333.363281 662.394531 331.726562 658.304688 329.90625 654.394531 C 329.179688 652.84375 327.269531 652.203125 325.632812 652.933594 Z M 298.882812 135.109375 C 300.160156 135.109375 301.433594 134.289062 301.886719 133.015625 C 303.523438 128.742188 304.890625 124.371094 306.070312 120.640625 C 306.621094 118.914062 305.710938 117.097656 303.984375 116.636719 C 302.253906 116.097656 300.433594 117.003906 299.976562 118.734375 C 298.796875 122.371094 297.429688 126.648438 295.878906 130.738281 C 295.246094 132.382812 296.066406 134.289062 297.796875 134.925781 C 298.0625 135.109375 298.429688 135.109375 298.882812 135.109375 Z M 262.042969 601.621094 C 262.769531 599.988281 262.042969 598.078125 260.398438 597.351562 C 256.855469 595.804688 252.757812 593.894531 249.121094 591.800781 C 247.570312 590.890625 245.570312 591.4375 244.753906 592.980469 C 243.933594 594.527344 244.386719 596.53125 245.9375 597.351562 C 249.753906 599.535156 254.125 601.535156 257.761719 603.171875 C 258.21875 603.351562 258.671875 603.445312 259.039062 603.445312 C 260.3125 603.539062 261.496094 602.8125 262.042969 601.621094 Z M 321.542969 700.148438 C 321.542969 700.148438 321.808594 697.96875 323.179688 694.785156 C 323.90625 693.140625 323.085938 691.234375 321.449219 690.597656 C 319.8125 689.871094 317.898438 690.6875 317.265625 692.328125 C 316.71875 693.601562 316.355469 694.601562 316.082031 695.605469 C 316.082031 695.605469 316.082031 695.691406 316.171875 695.691406 C 317.359375 697.695312 318.992188 699.78125 320.902344 701.785156 C 321.175781 701.425781 321.449219 700.785156 321.542969 700.148438 Z M 244.386719 250.28125 C 246.570312 246.644531 248.667969 242.820312 250.574219 238.824219 C 251.300781 237.179688 250.667969 235.273438 249.027344 234.546875 C 247.390625 233.816406 245.484375 234.453125 244.753906 236.09375 C 242.933594 239.816406 240.929688 243.460938 238.835938 246.917969 C 237.925781 248.460938 238.382812 250.375 239.929688 251.375 C 240.476562 251.644531 241.023438 251.832031 241.566406 251.832031 C 242.753906 251.832031 243.753906 251.191406 244.386719 250.28125 Z M 394.050781 659.578125 C 394.050781 661.394531 395.414062 662.847656 397.234375 662.847656 C 399.691406 662.847656 402.242188 662.941406 404.785156 663.121094 C 406.511719 663.214844 408.15625 663.304688 409.789062 663.394531 C 409.882812 663.394531 409.972656 663.394531 410.0625 663.394531 C 411.699219 663.394531 413.15625 662.121094 413.246094 660.394531 C 413.339844 658.578125 412.066406 657.117188 410.246094 656.9375 C 408.609375 656.84375 406.878906 656.753906 405.152344 656.664062 C 402.515625 656.480469 399.871094 656.480469 397.328125 656.390625 C 395.601562 656.300781 394.050781 657.757812 394.050781 659.578125 Z M 269.589844 608.449219 C 274.046875 610.445312 277.6875 612.175781 281.054688 613.996094 C 281.511719 614.269531 282.058594 614.363281 282.511719 614.363281 C 283.691406 614.363281 284.789062 613.722656 285.328125 612.632812 C 286.148438 611.085938 285.515625 609.085938 283.964844 608.261719 C 280.507812 606.449219 276.777344 604.625 272.140625 602.625 C 270.496094 601.898438 268.589844 602.625 267.863281 604.265625 C 267.222656 605.808594 267.953125 607.722656 269.589844 608.449219 Z M 338.917969 672.398438 C 337.914062 670.945312 335.914062 670.585938 334.457031 671.671875 C 330.632812 674.402344 327.269531 677.40625 324.453125 680.773438 C 323.265625 682.136719 323.453125 684.140625 324.8125 685.320312 C 325.453125 685.867188 326.179688 686.046875 326.910156 686.046875 C 327.816406 686.046875 328.726562 685.6875 329.363281 684.867188 C 331.820312 681.957031 334.824219 679.226562 338.1875 676.859375 C 339.558594 675.855469 339.917969 673.769531 338.917969 672.398438 Z M 239.835938 584.703125 C 237.378906 581.882812 235.925781 578.699219 235.566406 574.96875 C 235.382812 573.238281 233.742188 571.96875 232.015625 572.152344 C 230.285156 572.332031 229.015625 573.964844 229.195312 575.695312 C 229.746094 580.792969 231.652344 585.066406 235.015625 588.976562 C 235.652344 589.710938 236.566406 590.070312 237.472656 590.070312 C 238.199219 590.070312 239.023438 589.796875 239.570312 589.25 C 240.835938 588.066406 241.023438 586.066406 239.835938 584.703125 Z M 291.882812 620.277344 C 295.425781 622.640625 298.796875 625.09375 301.886719 627.738281 C 302.519531 628.277344 303.25 628.550781 303.984375 628.550781 C 304.890625 628.550781 305.796875 628.191406 306.4375 627.464844 C 307.621094 626.097656 307.441406 624.09375 306.070312 622.914062 C 302.796875 620.089844 299.25 617.453125 295.425781 614.996094 C 293.972656 613.996094 291.96875 614.449219 290.96875 615.90625 C 289.972656 617.359375 290.332031 619.363281 291.882812 620.277344 Z M 288.425781 156.308594 C 291.335938 153.210938 293.972656 149.574219 296.339844 145.207031 C 297.15625 143.660156 296.609375 141.65625 295.066406 140.835938 C 293.515625 140.023438 291.515625 140.570312 290.699219 142.117188 C 288.605469 145.9375 286.242188 149.210938 283.691406 151.941406 C 282.511719 153.210938 282.511719 155.304688 283.785156 156.488281 C 284.421875 157.035156 285.242188 157.394531 285.96875 157.394531 C 286.875 157.308594 287.785156 156.941406 288.425781 156.308594 Z M 232.5625 266.386719 C 232.65625 266.292969 232.742188 266.207031 232.835938 266.113281 C 234.289062 264.472656 235.652344 262.742188 237.019531 260.925781 C 238.109375 259.472656 237.839844 257.46875 236.378906 256.375 C 234.925781 255.289062 232.929688 255.5625 231.832031 257.015625 C 230.558594 258.652344 229.195312 260.285156 227.921875 261.835938 C 227.921875 261.835938 227.921875 261.835938 227.921875 261.929688 C 229.652344 263.203125 231.285156 264.746094 232.5625 266.386719 Z M 253.578125 95.082031 C 255.675781 94.535156 257.761719 93.988281 259.859375 93.53125 C 259.945312 93.71875 260.492188 95.988281 261.3125 99.898438 C 261.675781 101.628906 260.585938 103.355469 258.765625 103.722656 C 258.585938 103.722656 258.308594 103.808594 258.128906 103.808594 C 256.667969 103.808594 255.308594 102.722656 254.941406 101.265625 C 254.125 97.355469 253.578125 95.175781 253.578125 95.082031 " fill-opacity="1" fill-rule="nonzero"/></svg>