<svg xmlns="http://www.w3.org/2000/svg" xmlns:xlink="http://www.w3.org/1999/xlink" width="1080" zoomAndPan="magnify" viewBox="0 0 810 809.999993" height="1080" preserveAspectRatio="xMidYMid meet" version="1.0"><defs><clipPath id="a08bf624cf"><path d="M 178.90625 74.988281 L 706.042969 74.988281 L 706.042969 431.214844 L 178.90625 431.214844 Z M 178.90625 74.988281 " clip-rule="nonzero"/></clipPath><clipPath id="9a28c10af7"><path d="M 237.363281 687 L 359.449219 687 L 359.449219 734.984375 L 237.363281 734.984375 Z M 237.363281 687 " clip-rule="nonzero"/></clipPath></defs><path fill="#b84c65" d="M 547.542969 416.433594 L 244.070312 414.242188 L 244.070312 692.082031 C 244.070312 692.082031 310.457031 695.714844 338.402344 696.417969 C 338.632812 668.300781 342.484375 548.234375 391.050781 533.421875 C 430.363281 521.433594 459.351562 670.269531 464.191406 696.820312 L 549.734375 690.621094 L 547.542969 416.433594 " fill-opacity="1" fill-rule="nonzero"/><g clip-path="url(#a08bf624cf)"><path fill="#fcc0c5" d="M 706.042969 186.851562 C 706.042969 204.949219 697.816406 262.527344 689.59375 260.882812 C 681.363281 259.238281 604.03125 249.367188 579.351562 255.949219 C 568.808594 258.75 562.777344 261.613281 559.457031 266.125 C 558.070312 267.996094 557.152344 270.144531 556.578125 272.699219 C 555.375 278.125 555.691406 285.328125 556.320312 295.429688 C 557.964844 321.753906 561.253906 420.457031 551.382812 423.746094 C 541.511719 427.039062 242.058594 441.84375 225.605469 417.167969 C 216.171875 395.15625 226.273438 317.5625 227.1875 310.722656 C 227.234375 310.402344 227.25 310.238281 227.25 310.238281 C 227.25 310.238281 207.183594 283.488281 192.226562 251.316406 C 187.457031 241.082031 183.207031 230.28125 180.28125 219.632812 C 176.441406 205.652344 180.796875 190.675781 191.449219 180.820312 C 207.261719 166.183594 233.238281 142.695312 258.816406 121.824219 C 259.609375 121.199219 260.386719 120.5625 261.175781 119.90625 C 273.914062 109.609375 286.464844 100.058594 297.527344 92.6875 C 304.292969 88.175781 310.492188 84.472656 315.839844 81.933594 C 319.691406 80.074219 323.105469 78.824219 325.96875 78.273438 C 378.621094 104.597656 467.46875 74.988281 467.46875 74.988281 C 467.46875 74.988281 470.972656 76.359375 477.113281 78.8125 C 482.183594 80.835938 489.070312 83.574219 497.285156 86.898438 C 561.28125 112.746094 706.042969 172.761719 706.042969 186.851562 " fill-opacity="1" fill-rule="nonzero"/></g><path fill="#b84c65" d="M 497.285156 86.898438 C 493.992188 96.355469 474.460938 142.953125 406.042969 152.304688 C 336.632812 161.792969 302.980469 103.246094 297.527344 92.6875 C 304.292969 88.175781 310.492188 84.472656 315.839844 81.933594 C 324.203125 94.058594 350.132812 125.421875 395.621094 127.628906 C 443.945312 129.972656 470.453125 90.328125 477.113281 78.8125 C 482.183594 80.835938 489.070312 83.574219 497.285156 86.898438 " fill-opacity="1" fill-rule="nonzero"/><path fill="#b84c65" d="M 354.855469 189.046875 C 354.855469 191.671875 352.726562 193.800781 350.101562 193.800781 C 347.476562 193.800781 345.347656 191.671875 345.347656 189.046875 C 345.347656 186.421875 347.476562 184.292969 350.101562 184.292969 C 352.726562 184.292969 354.855469 186.421875 354.855469 189.046875 " fill-opacity="1" fill-rule="nonzero"/><path fill="#b84c65" d="M 268.566406 310.417969 C 268.566406 313.042969 266.4375 315.171875 263.8125 315.171875 C 261.1875 315.171875 259.058594 313.042969 259.058594 310.417969 C 259.058594 307.796875 261.1875 305.664062 263.8125 305.664062 C 266.4375 305.664062 268.566406 307.796875 268.566406 310.417969 " fill-opacity="1" fill-rule="nonzero"/><path fill="#b84c65" d="M 490.136719 147.371094 C 490.136719 149.992188 488.011719 152.125 485.382812 152.125 C 482.761719 152.125 480.632812 149.992188 480.632812 147.371094 C 480.632812 144.742188 482.761719 142.617188 485.382812 142.617188 C 488.011719 142.617188 490.136719 144.742188 490.136719 147.371094 " fill-opacity="1" fill-rule="nonzero"/><path fill="#b84c65" d="M 610.066406 200.746094 C 610.066406 203.367188 607.9375 205.496094 605.3125 205.496094 C 602.6875 205.496094 600.558594 203.367188 600.558594 200.746094 C 600.558594 198.121094 602.6875 195.992188 605.3125 195.992188 C 607.9375 195.992188 610.066406 198.121094 610.066406 200.746094 " fill-opacity="1" fill-rule="nonzero"/><path fill="#b84c65" d="M 578.621094 241.328125 C 578.621094 243.949219 576.492188 246.074219 573.871094 246.074219 C 571.242188 246.074219 569.117188 243.949219 569.117188 241.328125 C 569.117188 238.699219 571.242188 236.570312 573.871094 236.570312 C 576.492188 236.570312 578.621094 238.699219 578.621094 241.328125 " fill-opacity="1" fill-rule="nonzero"/><path fill="#b84c65" d="M 655.402344 237.667969 C 655.402344 240.292969 653.277344 242.421875 650.648438 242.421875 C 648.027344 242.421875 645.898438 240.292969 645.898438 237.667969 C 645.898438 235.042969 648.027344 232.917969 650.648438 232.917969 C 653.277344 232.917969 655.402344 235.042969 655.402344 237.667969 " fill-opacity="1" fill-rule="nonzero"/><path fill="#b84c65" d="M 300.011719 144.078125 C 300.011719 146.703125 297.882812 148.832031 295.257812 148.832031 C 292.632812 148.832031 290.503906 146.703125 290.503906 144.078125 C 290.503906 141.457031 292.632812 139.328125 295.257812 139.328125 C 297.882812 139.328125 300.011719 141.457031 300.011719 144.078125 " fill-opacity="1" fill-rule="nonzero"/><path fill="#b84c65" d="M 251.015625 178.445312 C 251.015625 181.070312 248.886719 183.199219 246.261719 183.199219 C 243.636719 183.199219 241.507812 181.070312 241.507812 178.445312 C 241.507812 175.820312 243.636719 173.691406 246.261719 173.691406 C 248.886719 173.691406 251.015625 175.820312 251.015625 178.445312 " fill-opacity="1" fill-rule="nonzero"/><path fill="#b84c65" d="M 265.640625 257.410156 C 265.640625 260.035156 263.511719 262.164062 260.886719 262.164062 C 258.261719 262.164062 256.132812 260.035156 256.132812 257.410156 C 256.132812 254.785156 258.261719 252.65625 260.886719 252.65625 C 263.511719 252.65625 265.640625 254.785156 265.640625 257.410156 " fill-opacity="1" fill-rule="nonzero"/><path fill="#b84c65" d="M 425.421875 219.023438 C 425.421875 221.648438 423.292969 223.777344 420.667969 223.777344 C 418.042969 223.777344 415.914062 221.648438 415.914062 219.023438 C 415.914062 216.402344 418.042969 214.269531 420.667969 214.269531 C 423.292969 214.269531 425.421875 216.402344 425.421875 219.023438 " fill-opacity="1" fill-rule="nonzero"/><path fill="#b84c65" d="M 400.925781 291.40625 C 400.925781 294.035156 398.796875 296.160156 396.171875 296.160156 C 393.546875 296.160156 391.417969 294.035156 391.417969 291.40625 C 391.417969 288.785156 393.546875 286.65625 396.171875 286.65625 C 398.796875 286.65625 400.925781 288.785156 400.925781 291.40625 " fill-opacity="1" fill-rule="nonzero"/><path fill="#b84c65" d="M 329.261719 341.859375 C 329.261719 344.484375 327.132812 346.609375 324.507812 346.609375 C 321.882812 346.609375 319.753906 344.484375 319.753906 341.859375 C 319.753906 339.234375 321.882812 337.109375 324.507812 337.109375 C 327.132812 337.109375 329.261719 339.234375 329.261719 341.859375 " fill-opacity="1" fill-rule="nonzero"/><path fill="#b84c65" d="M 414.085938 360.136719 C 414.085938 362.761719 411.960938 364.890625 409.332031 364.890625 C 406.707031 364.890625 404.578125 362.761719 404.578125 360.136719 C 404.578125 357.511719 406.707031 355.386719 409.332031 355.386719 C 411.960938 355.386719 414.085938 357.511719 414.085938 360.136719 " fill-opacity="1" fill-rule="nonzero"/><path fill="#b84c65" d="M 482.460938 224.144531 C 482.460938 226.765625 480.332031 228.890625 477.707031 228.890625 C 475.082031 228.890625 472.953125 226.765625 472.953125 224.144531 C 472.953125 221.515625 475.082031 219.390625 477.707031 219.390625 C 480.332031 219.390625 482.460938 221.515625 482.460938 224.144531 " fill-opacity="1" fill-rule="nonzero"/><path fill="#b84c65" d="M 468.566406 288.484375 C 468.566406 291.109375 466.4375 293.234375 463.8125 293.234375 C 461.1875 293.234375 459.058594 291.109375 459.058594 288.484375 C 459.058594 285.859375 461.1875 283.730469 463.8125 283.730469 C 466.4375 283.730469 468.566406 285.859375 468.566406 288.484375 " fill-opacity="1" fill-rule="nonzero"/><path fill="#b84c65" d="M 485.75 368.910156 C 485.75 371.535156 483.621094 373.664062 480.996094 373.664062 C 478.371094 373.664062 476.242188 371.535156 476.242188 368.910156 C 476.242188 366.285156 478.371094 364.160156 480.996094 364.160156 C 483.621094 364.160156 485.75 366.285156 485.75 368.910156 " fill-opacity="1" fill-rule="nonzero"/><path fill="#b84c65" d="M 432.003906 410.585938 C 432.003906 413.210938 429.875 415.339844 427.25 415.339844 C 424.625 415.339844 422.496094 413.210938 422.496094 410.585938 C 422.496094 407.960938 424.625 405.835938 427.25 405.835938 C 429.875 405.835938 432.003906 407.960938 432.003906 410.585938 " fill-opacity="1" fill-rule="nonzero"/><path fill="#b84c65" d="M 531.453125 296.527344 C 531.453125 299.148438 529.328125 301.277344 526.699219 301.277344 C 524.078125 301.277344 521.949219 299.148438 521.949219 296.527344 C 521.949219 293.902344 524.078125 291.773438 526.699219 291.773438 C 529.328125 291.773438 531.453125 293.902344 531.453125 296.527344 " fill-opacity="1" fill-rule="nonzero"/><path fill="#b84c65" d="M 538.765625 402.542969 C 538.765625 405.167969 536.640625 407.296875 534.015625 407.296875 C 531.390625 407.296875 529.261719 405.167969 529.261719 402.542969 C 529.261719 399.917969 531.390625 397.792969 534.015625 397.792969 C 536.640625 397.792969 538.765625 399.917969 538.765625 402.542969 " fill-opacity="1" fill-rule="nonzero"/><path fill="#b84c65" d="M 536.574219 191.972656 C 536.574219 194.59375 534.445312 196.726562 531.820312 196.726562 C 529.195312 196.726562 527.066406 194.59375 527.066406 191.972656 C 527.066406 189.34375 529.195312 187.21875 531.820312 187.21875 C 534.445312 187.21875 536.574219 189.34375 536.574219 191.972656 " fill-opacity="1" fill-rule="nonzero"/><path fill="#b84c65" d="M 587.394531 152.488281 C 587.394531 155.113281 585.269531 157.238281 582.640625 157.238281 C 580.019531 157.238281 577.890625 155.113281 577.890625 152.488281 C 577.890625 149.863281 580.019531 147.738281 582.640625 147.738281 C 585.269531 147.738281 587.394531 149.863281 587.394531 152.488281 " fill-opacity="1" fill-rule="nonzero"/><path fill="#b84c65" d="M 677.339844 197.085938 C 677.339844 199.714844 675.214844 201.839844 672.589844 201.839844 C 669.964844 201.839844 667.832031 199.714844 667.832031 197.085938 C 667.832031 194.464844 669.964844 192.335938 672.589844 192.335938 C 675.214844 192.335938 677.339844 194.464844 677.339844 197.085938 " fill-opacity="1" fill-rule="nonzero"/><path fill="#b84c65" d="M 340.230469 240.960938 C 340.230469 243.582031 338.101562 245.714844 335.476562 245.714844 C 332.851562 245.714844 330.722656 243.582031 330.722656 240.960938 C 330.722656 238.332031 332.851562 236.207031 335.476562 236.207031 C 338.101562 236.207031 340.230469 238.332031 340.230469 240.960938 " fill-opacity="1" fill-rule="nonzero"/><path fill="#b84c65" d="M 257.597656 392.308594 C 257.597656 394.933594 255.46875 397.0625 252.84375 397.0625 C 250.21875 397.0625 248.089844 394.933594 248.089844 392.308594 C 248.089844 389.683594 250.21875 387.554688 252.84375 387.554688 C 255.46875 387.554688 257.597656 389.683594 257.597656 392.308594 " fill-opacity="1" fill-rule="nonzero"/><path fill="#b84c65" d="M 344.617188 395.230469 C 344.617188 397.859375 342.488281 399.984375 339.863281 399.984375 C 337.238281 399.984375 335.109375 397.859375 335.109375 395.230469 C 335.109375 392.609375 337.238281 390.480469 339.863281 390.480469 C 342.488281 390.480469 344.617188 392.609375 344.617188 395.230469 " fill-opacity="1" fill-rule="nonzero"/><path fill="#b84c65" d="M 563.160156 143.121094 L 559.457031 266.125 C 558.070312 267.996094 557.152344 270.144531 556.578125 272.699219 C 556.242188 272.382812 556.042969 271.957031 556.058594 271.46875 L 559.929688 143.027344 C 559.960938 142.128906 560.734375 141.445312 561.589844 141.460938 C 562.488281 141.488281 563.1875 142.238281 563.160156 143.121094 " fill-opacity="1" fill-rule="nonzero"/><path fill="#b84c65" d="M 265.246094 123.472656 C 265.152344 123.210938 265.015625 122.996094 264.832031 122.832031 C 264.042969 123.484375 263.265625 124.125 262.472656 124.75 C 283.511719 183.898438 322.585938 296.601562 323.699219 310.3125 C 320.851562 311.988281 315.183594 314.316406 308.710938 316.96875 C 292.394531 323.65625 270.332031 332.71875 262.777344 343.183594 C 254.824219 335.855469 213.019531 295.996094 198.714844 254.347656 C 198.441406 253.554688 197.574219 253.128906 196.765625 253.402344 C 196.351562 253.539062 196.035156 253.863281 195.882812 254.242188 C 195.730469 254.574219 195.699219 254.972656 195.820312 255.351562 C 203.132812 276.585938 217.40625 297.320312 230.84375 313.648438 C 246.933594 333.175781 261.800781 346.414062 262.074219 346.65625 C 262.351562 346.898438 262.714844 347.035156 263.082031 347.035156 C 263.15625 347.035156 263.25 347.035156 263.324219 347.019531 C 263.78125 346.945312 264.179688 346.671875 264.40625 346.273438 C 270.242188 336.039062 294.101562 326.261719 309.867188 319.789062 C 317.363281 316.710938 323.289062 314.289062 326.074219 312.417969 C 326.488281 312.15625 326.730469 311.710938 326.761719 311.238281 C 327.507812 298.644531 267.789062 130.613281 265.246094 123.472656 " fill-opacity="1" fill-rule="nonzero"/><path fill="#fcc0c5" d="M 391.050781 533.421875 C 342.484375 548.234375 338.632812 668.300781 338.402344 696.417969 C 343.636719 696.550781 347.523438 696.585938 349.371094 696.46875 C 360.433594 695.773438 353.1875 593.722656 383.914062 543.066406 C 387.121094 537.78125 394.511719 536.730469 398.863281 541.125 C 429.949219 572.515625 448.820312 697.933594 448.820312 697.933594 L 464.191406 696.820312 C 459.351562 670.269531 430.363281 521.433594 391.050781 533.421875 " fill-opacity="1" fill-rule="nonzero"/><g clip-path="url(#9a28c10af7)"><path fill="#fcc0c5" d="M 244.800781 687.695312 C 244.800781 687.695312 233.832031 716.210938 238.949219 724.25 C 244.070312 732.296875 350.832031 738.875 356.683594 732.296875 C 362.53125 725.714844 357.414062 695.007812 353.757812 692.8125 C 350.101562 690.621094 249.917969 685.503906 244.800781 687.695312 " fill-opacity="1" fill-rule="nonzero"/></g><path fill="#fcc0c5" d="M 445.164062 685.503906 C 445.164062 685.503906 440.777344 727.175781 446.628906 728.636719 C 452.476562 730.105469 558.511719 726.445312 560.707031 720.597656 C 562.898438 714.746094 562.167969 678.191406 554.125 677.457031 C 546.078125 676.730469 451.015625 681.84375 445.164062 685.503906 " fill-opacity="1" fill-rule="nonzero"/><path fill="#fcc0c5" d="M 322.3125 551.121094 C 321.652344 551.121094 320.988281 550.953125 320.382812 550.597656 C 318.570312 549.527344 317.964844 547.191406 319.03125 545.378906 C 324.382812 536.292969 327.609375 530.808594 327.121094 520.046875 C 326.65625 509.78125 326.671875 501.023438 331.386719 489.5625 C 336.5 477.125 345.652344 467.410156 354.507812 458.011719 L 355.511719 456.949219 C 364.480469 447.414062 368.230469 441.207031 368.230469 427.402344 C 368.230469 425.300781 369.9375 423.59375 372.039062 423.59375 C 374.144531 423.59375 375.847656 425.300781 375.847656 427.402344 C 375.847656 443.601562 371.082031 451.519531 361.058594 462.167969 L 360.050781 463.238281 C 351.671875 472.128906 343.011719 481.320312 338.429688 492.460938 C 334.648438 501.65625 334.226562 508.570312 334.730469 519.699219 C 335.324219 532.722656 331.242188 539.652344 325.597656 549.246094 C 324.886719 550.453125 323.617188 551.121094 322.3125 551.121094 " fill-opacity="1" fill-rule="nonzero"/><path fill="#fcc0c5" d="M 375.695312 518.214844 C 374.621094 518.214844 373.554688 517.765625 372.800781 516.886719 C 371.433594 515.289062 371.621094 512.886719 373.21875 511.519531 C 376.914062 508.355469 376.640625 501.484375 376.394531 495.417969 C 376.332031 493.886719 376.277344 492.394531 376.277344 491.019531 C 376.277344 482.953125 377.351562 477.089844 383.027344 469.226562 C 384.90625 466.621094 387.074219 464.414062 389.167969 462.28125 C 392.28125 459.105469 395.226562 456.105469 396.855469 452.160156 C 400.21875 444.035156 398.773438 437.808594 396.183594 429.234375 C 395.574219 427.222656 396.710938 425.097656 398.726562 424.488281 C 400.742188 423.882812 402.867188 425.019531 403.472656 427.035156 C 406.25 436.222656 408.195312 444.671875 403.894531 455.074219 C 401.699219 460.382812 398.089844 464.058594 394.605469 467.613281 C 392.621094 469.636719 390.75 471.546875 389.207031 473.683594 C 385.085938 479.390625 383.890625 483.277344 383.890625 491.019531 C 383.890625 492.304688 383.949219 493.683594 384.003906 495.113281 C 384.304688 502.519531 384.671875 511.742188 378.171875 517.304688 C 377.453125 517.917969 376.570312 518.214844 375.695312 518.214844 " fill-opacity="1" fill-rule="nonzero"/><path fill="#fcc0c5" d="M 340.046875 524.097656 C 340.046875 527.226562 336.035156 529.765625 331.089844 529.765625 C 326.140625 529.765625 322.128906 527.226562 322.128906 524.097656 C 322.128906 520.96875 326.140625 518.433594 331.089844 518.433594 C 336.035156 518.433594 340.046875 520.96875 340.046875 524.097656 " fill-opacity="1" fill-rule="nonzero"/><path fill="#fcc0c5" d="M 389.042969 492.292969 C 389.042969 495.421875 385.03125 497.960938 380.085938 497.960938 C 375.136719 497.960938 371.125 495.421875 371.125 492.292969 C 371.125 489.164062 375.136719 486.625 380.085938 486.625 C 385.03125 486.625 389.042969 489.164062 389.042969 492.292969 " fill-opacity="1" fill-rule="nonzero"/></svg>