<svg xmlns="http://www.w3.org/2000/svg" xmlns:xlink="http://www.w3.org/1999/xlink" width="1080" zoomAndPan="magnify" viewBox="0 0 810 809.999993" height="1080" preserveAspectRatio="xMidYMid meet" version="1.0"><path fill="#b84c65" d="M 587.058594 111.707031 C 587.042969 110.71875 586.976562 109.734375 586.867188 108.75 C 586.753906 107.769531 586.597656 106.792969 586.390625 105.824219 C 586.183594 104.859375 585.929688 103.902344 585.632812 102.960938 C 585.332031 102.019531 584.988281 101.09375 584.597656 100.183594 C 584.210938 99.273438 583.777344 98.386719 583.300781 97.519531 C 582.824219 96.652344 582.308594 95.808594 581.75 94.992188 C 581.191406 94.175781 580.597656 93.386719 579.960938 92.628906 C 579.328125 91.871094 578.660156 91.144531 577.953125 90.449219 C 577.246094 89.757812 576.511719 89.097656 575.742188 88.476562 C 574.972656 87.855469 574.175781 87.273438 573.347656 86.730469 C 572.523438 86.183594 571.671875 85.683594 570.796875 85.21875 C 569.921875 84.757812 569.027344 84.339844 568.109375 83.96875 C 567.195312 83.59375 566.265625 83.265625 565.316406 82.980469 C 564.367188 82.699219 563.410156 82.460938 562.4375 82.269531 C 561.46875 82.082031 560.492188 81.9375 559.507812 81.84375 C 558.523438 81.75 557.535156 81.703125 556.546875 81.703125 L 253.453125 81.703125 C 252.464844 81.703125 251.480469 81.75 250.492188 81.84375 C 249.507812 81.9375 248.53125 82.082031 247.5625 82.269531 C 246.589844 82.460938 245.632812 82.699219 244.683594 82.980469 C 243.734375 83.265625 242.804688 83.59375 241.890625 83.96875 C 240.972656 84.339844 240.078125 84.757812 239.203125 85.21875 C 238.328125 85.683594 237.476562 86.183594 236.652344 86.730469 C 235.824219 87.273438 235.027344 87.855469 234.257812 88.476562 C 233.488281 89.097656 232.753906 89.757812 232.046875 90.449219 C 231.339844 91.144531 230.671875 91.871094 230.039062 92.628906 C 229.402344 93.386719 228.808594 94.175781 228.25 94.992188 C 227.691406 95.808594 227.175781 96.652344 226.699219 97.519531 C 226.222656 98.386719 225.789062 99.273438 225.402344 100.183594 C 225.011719 101.09375 224.667969 102.019531 224.367188 102.960938 C 224.070312 103.902344 223.816406 104.859375 223.609375 105.824219 C 223.402344 106.792969 223.246094 107.769531 223.132812 108.75 C 223.023438 109.734375 222.957031 110.71875 222.941406 111.707031 C 222.792969 124.640625 172.074219 641.96875 178.1875 709.910156 C 178.242188 710.535156 178.324219 711.15625 178.4375 711.769531 C 178.550781 712.386719 178.695312 712.996094 178.863281 713.601562 C 179.035156 714.203125 179.230469 714.796875 179.457031 715.382812 C 179.683594 715.96875 179.933594 716.542969 180.214844 717.101562 C 180.492188 717.664062 180.796875 718.210938 181.125 718.746094 C 181.457031 719.277344 181.808594 719.792969 182.1875 720.292969 C 182.566406 720.792969 182.964844 721.277344 183.390625 721.738281 C 183.8125 722.199219 184.253906 722.644531 184.71875 723.0625 C 185.183594 723.484375 185.667969 723.882812 186.167969 724.261719 C 186.667969 724.636719 187.1875 724.988281 187.722656 725.316406 C 188.253906 725.644531 188.804688 725.949219 189.367188 726.222656 C 189.929688 726.5 190.503906 726.75 191.089844 726.976562 C 191.675781 727.199219 192.269531 727.394531 192.871094 727.5625 C 193.476562 727.730469 194.085938 727.867188 194.703125 727.980469 C 195.320312 728.089844 195.941406 728.171875 196.566406 728.226562 C 197.191406 728.277344 197.816406 728.300781 198.445312 728.296875 L 285.480469 728.296875 C 286.605469 728.300781 287.71875 728.214844 288.828125 728.035156 C 289.9375 727.855469 291.023438 727.582031 292.085938 727.222656 C 293.148438 726.859375 294.175781 726.414062 295.164062 725.878906 C 296.152344 725.347656 297.089844 724.738281 297.976562 724.046875 C 298.863281 723.359375 299.6875 722.601562 300.445312 721.773438 C 301.207031 720.949219 301.894531 720.066406 302.507812 719.125 C 303.121094 718.183594 303.652344 717.199219 304.101562 716.167969 C 304.550781 715.140625 304.910156 714.082031 305.183594 712.992188 L 405 324.023438 L 504.816406 712.839844 C 505.085938 713.9375 505.441406 715.003906 505.886719 716.042969 C 506.332031 717.082031 506.859375 718.074219 507.472656 719.023438 C 508.085938 719.976562 508.773438 720.867188 509.53125 721.703125 C 510.292969 722.535156 511.121094 723.300781 512.011719 723.996094 C 512.898438 724.695312 513.839844 725.3125 514.835938 725.851562 C 515.828125 726.390625 516.859375 726.839844 517.925781 727.207031 C 518.996094 727.574219 520.085938 727.847656 521.203125 728.03125 C 522.316406 728.214844 523.441406 728.300781 524.570312 728.296875 L 611.554688 728.296875 C 612.183594 728.300781 612.808594 728.277344 613.433594 728.226562 C 614.058594 728.171875 614.679688 728.089844 615.296875 727.980469 C 615.914062 727.867188 616.523438 727.730469 617.128906 727.5625 C 617.730469 727.394531 618.328125 727.199219 618.910156 726.976562 C 619.496094 726.75 620.070312 726.5 620.632812 726.222656 C 621.195312 725.949219 621.746094 725.644531 622.277344 725.316406 C 622.8125 724.988281 623.332031 724.636719 623.832031 724.261719 C 624.332031 723.882812 624.816406 723.484375 625.28125 723.0625 C 625.746094 722.644531 626.1875 722.199219 626.609375 721.738281 C 627.035156 721.277344 627.433594 720.792969 627.8125 720.292969 C 628.191406 719.792969 628.542969 719.277344 628.875 718.746094 C 629.203125 718.210938 629.507812 717.664062 629.785156 717.101562 C 630.066406 716.542969 630.316406 715.96875 630.542969 715.382812 C 630.769531 714.796875 630.964844 714.203125 631.136719 713.601562 C 631.304688 712.996094 631.449219 712.386719 631.5625 711.769531 C 631.675781 711.15625 631.757812 710.535156 631.8125 709.910156 C 637.925781 642.269531 587.207031 124.792969 587.058594 111.707031 Z M 577.457031 233.957031 L 512.496094 152.425781 L 569.679688 152.425781 C 571.546875 173.539062 574.277344 201.375 577.457031 233.957031 Z M 557.554688 541.390625 C 557.558594 542.058594 557.496094 542.71875 557.371094 543.375 C 557.242188 544.03125 557.054688 544.667969 556.800781 545.285156 C 556.546875 545.902344 556.238281 546.488281 555.871094 547.046875 C 555.5 547.601562 555.082031 548.117188 554.613281 548.589844 C 554.140625 549.066406 553.628906 549.488281 553.078125 549.863281 C 552.523438 550.234375 551.9375 550.550781 551.324219 550.808594 C 550.707031 551.066406 550.074219 551.261719 549.417969 551.394531 C 548.765625 551.527344 548.101562 551.59375 547.4375 551.59375 C 546.769531 551.597656 546.109375 551.535156 545.453125 551.40625 C 544.796875 551.277344 544.160156 551.085938 543.542969 550.832031 C 542.925781 550.578125 542.339844 550.269531 541.785156 549.898438 C 541.226562 549.53125 540.714844 549.109375 540.242188 548.640625 C 539.765625 548.167969 539.34375 547.65625 538.972656 547.101562 C 538.601562 546.546875 538.285156 545.960938 538.03125 545.347656 C 537.773438 544.730469 537.578125 544.09375 537.449219 543.441406 C 537.316406 542.785156 537.25 542.125 537.25 541.457031 C 537.246094 540.792969 537.3125 540.128906 537.441406 539.476562 C 537.570312 538.820312 537.761719 538.183594 538.015625 537.566406 C 538.273438 536.949219 538.585938 536.363281 538.953125 535.808594 C 539.324219 535.253906 539.746094 534.742188 540.214844 534.269531 C 540.6875 533.796875 541.203125 533.375 541.757812 533.003906 C 542.3125 532.632812 542.894531 532.316406 543.511719 532.0625 C 544.128906 531.808594 544.765625 531.613281 545.417969 531.484375 C 546.074219 531.351562 546.734375 531.289062 547.402344 531.289062 C 548.066406 531.289062 548.726562 531.351562 549.378906 531.480469 C 550.03125 531.609375 550.664062 531.800781 551.277344 532.054688 C 551.890625 532.308594 552.476562 532.617188 553.03125 532.984375 C 553.582031 533.355469 554.097656 533.773438 554.566406 534.242188 C 555.039062 534.710938 555.460938 535.21875 555.832031 535.773438 C 556.203125 536.324219 556.515625 536.90625 556.769531 537.519531 C 557.027344 538.132812 557.222656 538.765625 557.355469 539.417969 C 557.484375 540.066406 557.554688 540.726562 557.554688 541.390625 Z M 243.300781 111.910156 C 243.3125 111.25 243.382812 110.597656 243.523438 109.953125 C 243.660156 109.304688 243.859375 108.679688 244.117188 108.074219 C 244.378906 107.464844 244.691406 106.890625 245.066406 106.34375 C 245.4375 105.796875 245.859375 105.292969 246.328125 104.828125 C 246.800781 104.367188 247.308594 103.953125 247.859375 103.589844 C 248.410156 103.226562 248.992188 102.917969 249.605469 102.667969 C 250.214844 102.417969 250.84375 102.226562 251.492188 102.101562 C 252.140625 101.972656 252.792969 101.910156 253.453125 101.910156 L 556.546875 101.910156 C 557.207031 101.910156 557.859375 101.972656 558.507812 102.101562 C 559.15625 102.226562 559.785156 102.417969 560.394531 102.667969 C 561.007812 102.917969 561.589844 103.226562 562.140625 103.589844 C 562.691406 103.953125 563.199219 104.367188 563.671875 104.828125 C 564.140625 105.292969 564.5625 105.796875 564.933594 106.34375 C 565.308594 106.890625 565.621094 107.464844 565.882812 108.074219 C 566.140625 108.679688 566.339844 109.304688 566.476562 109.953125 C 566.617188 110.597656 566.6875 111.25 566.699219 111.910156 C 566.75 115.800781 567.203125 122.773438 567.960938 132.21875 L 242.039062 132.21875 C 242.796875 122.722656 243.25 115.75 243.300781 111.910156 Z M 240.320312 152.425781 L 297.503906 152.425781 L 232.542969 234.007812 C 235.722656 201.375 238.402344 173.539062 240.320312 152.425781 Z M 262.597656 531.289062 C 263.261719 531.292969 263.917969 531.359375 264.566406 531.492188 C 265.214844 531.625 265.84375 531.820312 266.457031 532.074219 C 267.066406 532.332031 267.648438 532.644531 268.195312 533.015625 C 268.746094 533.386719 269.253906 533.804688 269.722656 534.277344 C 270.1875 534.746094 270.605469 535.257812 270.96875 535.8125 C 271.335938 536.363281 271.644531 536.945312 271.894531 537.558594 C 272.148438 538.171875 272.335938 538.804688 272.464844 539.457031 C 272.589844 540.105469 272.652344 540.761719 272.648438 541.425781 C 272.648438 542.085938 272.582031 542.742188 272.449219 543.394531 C 272.320312 544.042969 272.125 544.671875 271.871094 545.285156 C 271.613281 545.894531 271.300781 546.476562 270.933594 547.027344 C 270.5625 547.578125 270.144531 548.085938 269.671875 548.554688 C 269.203125 549.019531 268.691406 549.4375 268.140625 549.804688 C 267.589844 550.171875 267.007812 550.480469 266.394531 550.734375 C 265.78125 550.984375 265.148438 551.175781 264.5 551.304688 C 263.847656 551.433594 263.191406 551.496094 262.53125 551.492188 C 261.867188 551.492188 261.210938 551.425781 260.5625 551.296875 C 259.910156 551.167969 259.28125 550.972656 258.667969 550.71875 C 258.058594 550.464844 257.476562 550.152344 256.925781 549.785156 C 256.375 549.417969 255.867188 548.996094 255.398438 548.527344 C 254.929688 548.058594 254.511719 547.550781 254.144531 547 C 253.777344 546.449219 253.464844 545.867188 253.210938 545.253906 C 252.957031 544.640625 252.765625 544.011719 252.636719 543.359375 C 252.507812 542.710938 252.445312 542.054688 252.445312 541.390625 C 252.449219 540.726562 252.519531 540.070312 252.652344 539.417969 C 252.789062 538.769531 252.984375 538.136719 253.242188 537.527344 C 253.496094 536.914062 253.8125 536.332031 254.183594 535.78125 C 254.554688 535.230469 254.976562 534.722656 255.445312 534.253906 C 255.917969 533.785156 256.425781 533.367188 256.980469 533 C 257.53125 532.628906 258.117188 532.320312 258.730469 532.066406 C 259.34375 531.8125 259.972656 531.617188 260.625 531.488281 C 261.277344 531.355469 261.933594 531.289062 262.597656 531.289062 Z M 285.480469 708.089844 L 198.445312 708.140625 C 197.835938 701.171875 197.535156 692.230469 197.535156 681.773438 C 199.761719 683.769531 202.273438 685.292969 205.070312 686.347656 C 207.867188 687.402344 210.761719 687.914062 213.75 687.886719 C 215.433594 687.882812 217.097656 687.710938 218.75 687.375 C 220.398438 687.035156 221.996094 686.539062 223.546875 685.878906 C 225.09375 685.21875 226.5625 684.410156 227.949219 683.457031 C 229.335938 682.5 230.613281 681.417969 231.785156 680.207031 C 234.257812 677.984375 234.613281 677.78125 236.128906 677.78125 C 237.644531 677.78125 237.996094 677.984375 240.472656 680.207031 C 241.054688 680.8125 241.664062 681.386719 242.304688 681.929688 C 242.945312 682.476562 243.609375 682.984375 244.300781 683.460938 C 244.992188 683.9375 245.707031 684.378906 246.441406 684.785156 C 247.179688 685.191406 247.933594 685.558594 248.707031 685.886719 C 249.476562 686.214844 250.265625 686.503906 251.066406 686.753906 C 251.871094 687.003906 252.683594 687.210938 253.503906 687.378906 C 254.328125 687.546875 255.15625 687.675781 255.992188 687.757812 C 256.828125 687.84375 257.667969 687.886719 258.507812 687.886719 C 259.347656 687.886719 260.183594 687.84375 261.019531 687.757812 C 261.855469 687.675781 262.683594 687.546875 263.507812 687.378906 C 264.328125 687.210938 265.140625 687.003906 265.945312 686.753906 C 266.746094 686.503906 267.535156 686.214844 268.304688 685.886719 C 269.078125 685.558594 269.832031 685.191406 270.570312 684.785156 C 271.304688 684.378906 272.019531 683.9375 272.710938 683.460938 C 273.402344 682.984375 274.066406 682.476562 274.707031 681.929688 C 275.347656 681.386719 275.957031 680.8125 276.539062 680.207031 C 279.015625 677.984375 279.367188 677.78125 280.882812 677.78125 C 282.449219 677.78125 282.753906 677.984375 285.226562 680.207031 C 287.125 681.988281 289.195312 683.539062 291.441406 684.855469 Z M 282.957031 460.566406 C 282.292969 460.5625 281.636719 460.496094 280.988281 460.363281 C 280.339844 460.230469 279.707031 460.035156 279.097656 459.78125 C 278.484375 459.523438 277.90625 459.210938 277.355469 458.839844 C 276.808594 458.46875 276.296875 458.046875 275.832031 457.578125 C 275.367188 457.109375 274.949219 456.597656 274.582031 456.042969 C 274.21875 455.492188 273.910156 454.910156 273.65625 454.296875 C 273.40625 453.683594 273.21875 453.050781 273.089844 452.398438 C 272.964844 451.75 272.902344 451.09375 272.902344 450.429688 C 272.90625 449.769531 272.972656 449.113281 273.101562 448.460938 C 273.234375 447.8125 273.429688 447.183594 273.683594 446.570312 C 273.9375 445.957031 274.25 445.378906 274.621094 444.828125 C 274.992188 444.277344 275.410156 443.769531 275.878906 443.300781 C 276.347656 442.835938 276.859375 442.417969 277.410156 442.050781 C 277.964844 441.683594 278.546875 441.375 279.160156 441.121094 C 279.773438 440.871094 280.402344 440.679688 281.054688 440.550781 C 281.703125 440.421875 282.359375 440.359375 283.023438 440.359375 C 283.683594 440.363281 284.339844 440.425781 284.992188 440.558594 C 285.640625 440.6875 286.273438 440.878906 286.882812 441.132812 C 287.496094 441.390625 288.078125 441.699219 288.628906 442.070312 C 289.179688 442.4375 289.6875 442.855469 290.15625 443.324219 C 290.625 443.792969 291.042969 444.304688 291.410156 444.855469 C 291.777344 445.40625 292.089844 445.988281 292.339844 446.601562 C 292.59375 447.214844 292.785156 447.84375 292.914062 448.496094 C 293.042969 449.144531 293.109375 449.800781 293.109375 450.464844 C 293.105469 451.128906 293.039062 451.785156 292.90625 452.4375 C 292.773438 453.089844 292.582031 453.722656 292.324219 454.335938 C 292.066406 454.949219 291.753906 455.53125 291.382812 456.082031 C 291.011719 456.632812 290.589844 457.144531 290.121094 457.613281 C 289.648438 458.082031 289.136719 458.5 288.582031 458.871094 C 288.03125 459.238281 287.445312 459.546875 286.832031 459.800781 C 286.214844 460.054688 285.582031 460.246094 284.929688 460.375 C 284.277344 460.503906 283.621094 460.566406 282.957031 460.566406 Z M 328.21875 357.363281 L 298.917969 384.792969 L 269.621094 357.363281 C 269.144531 356.929688 268.691406 356.472656 268.261719 355.988281 C 267.832031 355.507812 267.429688 355.003906 267.054688 354.480469 C 266.679688 353.957031 266.332031 353.417969 266.011719 352.859375 C 265.691406 352.296875 265.402344 351.722656 265.140625 351.132812 C 264.878906 350.542969 264.652344 349.941406 264.453125 349.328125 C 264.253906 348.714844 264.089844 348.09375 263.957031 347.460938 C 263.824219 346.832031 263.722656 346.195312 263.65625 345.554688 C 263.589844 344.910156 263.558594 344.269531 263.558594 343.625 C 263.558594 342.980469 263.589844 342.335938 263.65625 341.695312 C 263.722656 341.054688 263.824219 340.417969 263.957031 339.789062 C 264.089844 339.15625 264.253906 338.535156 264.453125 337.921875 C 264.652344 337.308594 264.878906 336.703125 265.140625 336.113281 C 265.402344 335.523438 265.691406 334.949219 266.011719 334.390625 C 266.332031 333.832031 266.679688 333.289062 267.054688 332.765625 C 267.429688 332.242188 267.832031 331.738281 268.261719 331.257812 C 268.691406 330.777344 269.144531 330.320312 269.621094 329.882812 C 270.113281 329.433594 270.628906 329.003906 271.164062 328.597656 C 271.699219 328.195312 272.25 327.816406 272.820312 327.460938 C 273.390625 327.109375 273.976562 326.78125 274.574219 326.484375 C 275.175781 326.183594 275.789062 325.914062 276.414062 325.671875 C 277.039062 325.429688 277.671875 325.214844 278.316406 325.03125 C 278.960938 324.847656 279.613281 324.695312 280.273438 324.570312 C 280.929688 324.449219 281.59375 324.355469 282.261719 324.292969 C 282.929688 324.230469 283.597656 324.199219 284.269531 324.199219 C 284.9375 324.199219 285.609375 324.230469 286.277344 324.292969 C 286.941406 324.355469 287.605469 324.449219 288.265625 324.570312 C 288.925781 324.695312 289.574219 324.847656 290.21875 325.03125 C 290.867188 325.214844 291.5 325.429688 292.125 325.671875 C 292.75 325.914062 293.363281 326.183594 293.960938 326.484375 C 294.5625 326.78125 295.148438 327.109375 295.71875 327.460938 C 296.285156 327.816406 296.839844 328.195312 297.375 328.597656 C 297.910156 329.003906 298.421875 329.433594 298.917969 329.882812 C 299.414062 329.433594 299.929688 329.003906 300.460938 328.597656 C 300.996094 328.195312 301.550781 327.816406 302.117188 327.460938 C 302.6875 327.109375 303.273438 326.78125 303.875 326.484375 C 304.472656 326.183594 305.085938 325.914062 305.710938 325.671875 C 306.335938 325.429688 306.972656 325.214844 307.617188 325.03125 C 308.261719 324.847656 308.910156 324.695312 309.570312 324.570312 C 310.230469 324.449219 310.894531 324.355469 311.5625 324.292969 C 312.226562 324.230469 312.898438 324.199219 313.566406 324.199219 C 314.238281 324.199219 314.90625 324.230469 315.574219 324.292969 C 316.242188 324.355469 316.90625 324.449219 317.5625 324.570312 C 318.222656 324.695312 318.875 324.847656 319.519531 325.03125 C 320.164062 325.214844 320.800781 325.429688 321.425781 325.671875 C 322.050781 325.914062 322.660156 326.183594 323.261719 326.484375 C 323.863281 326.78125 324.445312 327.109375 325.015625 327.460938 C 325.585938 327.816406 326.136719 328.195312 326.671875 328.597656 C 327.207031 329.003906 327.722656 329.433594 328.21875 329.882812 C 328.691406 330.320312 329.144531 330.777344 329.574219 331.257812 C 330.003906 331.738281 330.40625 332.242188 330.78125 332.765625 C 331.15625 333.289062 331.503906 333.832031 331.824219 334.390625 C 332.144531 334.949219 332.4375 335.523438 332.695312 336.113281 C 332.957031 336.703125 333.183594 337.308594 333.382812 337.921875 C 333.582031 338.535156 333.746094 339.15625 333.878906 339.789062 C 334.011719 340.417969 334.113281 341.054688 334.179688 341.695312 C 334.246094 342.335938 334.277344 342.980469 334.277344 343.625 C 334.277344 344.269531 334.246094 344.910156 334.179688 345.554688 C 334.113281 346.195312 334.011719 346.832031 333.878906 347.460938 C 333.746094 348.09375 333.582031 348.714844 333.382812 349.328125 C 333.183594 349.941406 332.957031 350.542969 332.695312 351.132812 C 332.4375 351.722656 332.144531 352.296875 331.824219 352.859375 C 331.503906 353.417969 331.15625 353.957031 330.78125 354.480469 C 330.40625 355.003906 330.003906 355.507812 329.574219 355.988281 C 329.144531 356.472656 328.691406 356.929688 328.21875 357.363281 Z M 410.050781 206.726562 C 409.964844 208.703125 409.734375 210.660156 409.359375 212.597656 C 408.980469 214.539062 408.464844 216.441406 407.804688 218.300781 C 407.148438 220.164062 406.355469 221.96875 405.425781 223.714844 C 404.5 225.460938 403.449219 227.125 402.273438 228.714844 C 401.097656 230.304688 399.8125 231.796875 398.417969 233.195312 C 397.019531 234.59375 395.527344 235.878906 393.941406 237.054688 C 392.351562 238.230469 390.683594 239.28125 388.941406 240.210938 C 387.195312 241.140625 385.394531 241.933594 383.53125 242.59375 C 382.917969 242.847656 382.285156 243.039062 381.636719 243.164062 C 380.984375 243.292969 380.328125 243.355469 379.664062 243.351562 C 379 243.347656 378.34375 243.28125 377.695312 243.148438 C 377.042969 243.015625 376.414062 242.816406 375.804688 242.558594 C 375.191406 242.300781 374.613281 241.984375 374.066406 241.613281 C 373.515625 241.238281 373.011719 240.816406 372.546875 240.339844 C 372.082031 239.867188 371.667969 239.351562 371.308594 238.796875 C 370.945312 238.238281 370.640625 237.652344 370.398438 237.039062 C 370.144531 236.425781 369.953125 235.792969 369.824219 235.140625 C 369.699219 234.488281 369.636719 233.832031 369.640625 233.167969 C 369.640625 232.507812 369.710938 231.851562 369.84375 231.199219 C 369.976562 230.550781 370.171875 229.921875 370.429688 229.308594 C 370.6875 228.699219 371.003906 228.117188 371.378906 227.570312 C 371.753906 227.023438 372.175781 226.515625 372.648438 226.050781 C 373.125 225.589844 373.640625 225.175781 374.195312 224.8125 C 374.75 224.453125 375.335938 224.148438 375.953125 223.902344 C 376.890625 223.617188 377.800781 223.265625 378.683594 222.84375 C 379.566406 222.421875 380.414062 221.9375 381.226562 221.390625 C 382.039062 220.84375 382.804688 220.238281 383.527344 219.578125 C 384.246094 218.917969 384.917969 218.207031 385.53125 217.445312 C 386.148438 216.683594 386.703125 215.882812 387.199219 215.035156 C 387.695312 214.191406 388.125 213.316406 388.492188 212.410156 C 388.855469 211.5 389.152344 210.570312 389.378906 209.617188 C 389.605469 208.667969 389.761719 207.703125 389.84375 206.726562 L 389.84375 152.425781 L 410.050781 152.425781 Z M 481.78125 357.363281 C 481.308594 356.929688 480.855469 356.472656 480.425781 355.988281 C 479.996094 355.507812 479.59375 355.003906 479.21875 354.480469 C 478.84375 353.957031 478.496094 353.417969 478.175781 352.859375 C 477.855469 352.296875 477.5625 351.722656 477.304688 351.132812 C 477.042969 350.542969 476.816406 349.941406 476.617188 349.328125 C 476.417969 348.714844 476.253906 348.09375 476.121094 347.460938 C 475.988281 346.832031 475.886719 346.195312 475.820312 345.554688 C 475.753906 344.910156 475.722656 344.269531 475.722656 343.625 C 475.722656 342.980469 475.753906 342.335938 475.820312 341.695312 C 475.886719 341.054688 475.988281 340.417969 476.121094 339.789062 C 476.253906 339.15625 476.417969 338.535156 476.617188 337.921875 C 476.816406 337.308594 477.042969 336.703125 477.304688 336.113281 C 477.5625 335.523438 477.855469 334.949219 478.175781 334.390625 C 478.496094 333.832031 478.84375 333.289062 479.21875 332.765625 C 479.59375 332.242188 479.996094 331.738281 480.425781 331.257812 C 480.855469 330.777344 481.308594 330.320312 481.78125 329.882812 C 482.277344 329.433594 482.792969 329.003906 483.328125 328.597656 C 483.863281 328.195312 484.414062 327.816406 484.984375 327.460938 C 485.554688 327.109375 486.140625 326.78125 486.738281 326.484375 C 487.339844 326.183594 487.949219 325.914062 488.574219 325.671875 C 489.199219 325.429688 489.835938 325.214844 490.480469 325.03125 C 491.125 324.847656 491.777344 324.695312 492.4375 324.570312 C 493.09375 324.449219 493.757812 324.355469 494.425781 324.292969 C 495.09375 324.230469 495.761719 324.199219 496.433594 324.199219 C 497.101562 324.199219 497.773438 324.230469 498.4375 324.292969 C 499.105469 324.355469 499.769531 324.449219 500.429688 324.570312 C 501.089844 324.695312 501.738281 324.847656 502.382812 325.03125 C 503.027344 325.214844 503.664062 325.429688 504.289062 325.671875 C 504.914062 325.914062 505.527344 326.183594 506.125 326.484375 C 506.726562 326.78125 507.3125 327.109375 507.882812 327.460938 C 508.449219 327.816406 509.003906 328.195312 509.539062 328.597656 C 510.070312 329.003906 510.585938 329.433594 511.082031 329.882812 C 511.578125 329.433594 512.089844 329.003906 512.625 328.597656 C 513.160156 328.195312 513.714844 327.816406 514.28125 327.460938 C 514.851562 327.109375 515.4375 326.78125 516.039062 326.484375 C 516.636719 326.183594 517.25 325.914062 517.875 325.671875 C 518.5 325.429688 519.132812 325.214844 519.78125 325.03125 C 520.425781 324.847656 521.074219 324.695312 521.734375 324.570312 C 522.394531 324.449219 523.058594 324.355469 523.722656 324.292969 C 524.390625 324.230469 525.0625 324.199219 525.730469 324.199219 C 526.402344 324.199219 527.070312 324.230469 527.738281 324.292969 C 528.40625 324.355469 529.070312 324.449219 529.726562 324.570312 C 530.386719 324.695312 531.039062 324.847656 531.683594 325.03125 C 532.328125 325.214844 532.960938 325.429688 533.589844 325.671875 C 534.214844 325.914062 534.824219 326.183594 535.425781 326.484375 C 536.023438 326.78125 536.609375 327.109375 537.179688 327.460938 C 537.75 327.816406 538.300781 328.195312 538.835938 328.597656 C 539.371094 329.003906 539.886719 329.433594 540.378906 329.882812 C 540.855469 330.320312 541.308594 330.777344 541.738281 331.257812 C 542.167969 331.738281 542.570312 332.242188 542.945312 332.765625 C 543.320312 333.289062 543.667969 333.832031 543.988281 334.390625 C 544.308594 334.949219 544.601562 335.523438 544.859375 336.113281 C 545.121094 336.703125 545.347656 337.308594 545.546875 337.921875 C 545.746094 338.535156 545.910156 339.15625 546.042969 339.789062 C 546.175781 340.417969 546.277344 341.054688 546.34375 341.695312 C 546.410156 342.335938 546.441406 342.980469 546.441406 343.625 C 546.441406 344.269531 546.410156 344.910156 546.34375 345.554688 C 546.277344 346.195312 546.175781 346.832031 546.042969 347.460938 C 545.910156 348.09375 545.746094 348.714844 545.546875 349.328125 C 545.347656 349.941406 545.121094 350.542969 544.859375 351.132812 C 544.601562 351.722656 544.308594 352.296875 543.988281 352.859375 C 543.667969 353.417969 543.320312 353.957031 542.945312 354.480469 C 542.570312 355.003906 542.167969 355.507812 541.738281 355.988281 C 541.308594 356.472656 540.855469 356.929688 540.378906 357.363281 L 511.082031 384.792969 Z M 527.042969 440.359375 C 527.707031 440.363281 528.363281 440.433594 529.011719 440.5625 C 529.660156 440.695312 530.292969 440.890625 530.902344 441.148438 C 531.515625 441.402344 532.09375 441.71875 532.644531 442.089844 C 533.191406 442.457031 533.703125 442.878906 534.167969 443.351562 C 534.632812 443.820312 535.050781 444.332031 535.417969 444.882812 C 535.78125 445.4375 536.089844 446.019531 536.34375 446.632812 C 536.59375 447.246094 536.78125 447.878906 536.910156 448.527344 C 537.035156 449.179688 537.097656 449.835938 537.097656 450.496094 C 537.09375 451.160156 537.027344 451.816406 536.898438 452.464844 C 536.765625 453.113281 536.570312 453.746094 536.316406 454.355469 C 536.0625 454.96875 535.75 455.550781 535.378906 456.097656 C 535.007812 456.648438 534.589844 457.15625 534.121094 457.625 C 533.652344 458.09375 533.140625 458.511719 532.589844 458.875 C 532.035156 459.242188 531.453125 459.554688 530.839844 459.804688 C 530.226562 460.058594 529.597656 460.25 528.945312 460.375 C 528.296875 460.503906 527.640625 460.566406 526.976562 460.566406 C 526.316406 460.566406 525.660156 460.5 525.007812 460.371094 C 524.359375 460.238281 523.726562 460.046875 523.117188 459.792969 C 522.503906 459.539062 521.921875 459.226562 521.371094 458.859375 C 520.820312 458.488281 520.3125 458.070312 519.84375 457.601562 C 519.375 457.132812 518.957031 456.621094 518.589844 456.070312 C 518.222656 455.519531 517.910156 454.9375 517.660156 454.324219 C 517.40625 453.714844 517.214844 453.082031 517.085938 452.433594 C 516.957031 451.78125 516.890625 451.125 516.890625 450.464844 C 516.898438 449.800781 516.964844 449.144531 517.101562 448.492188 C 517.234375 447.84375 517.429688 447.210938 517.6875 446.597656 C 517.945312 445.988281 518.257812 445.40625 518.628906 444.855469 C 519 444.304688 519.421875 443.792969 519.890625 443.328125 C 520.363281 442.859375 520.875 442.441406 521.425781 442.070312 C 521.980469 441.703125 522.5625 441.390625 523.175781 441.136719 C 523.789062 440.882812 524.421875 440.691406 525.074219 440.558594 C 525.722656 440.429688 526.378906 440.363281 527.042969 440.359375 Z M 611.554688 708.089844 L 524.519531 707.988281 L 518.8125 685.664062 C 522.0625 687.171875 525.480469 687.914062 529.066406 687.886719 C 530.75 687.882812 532.414062 687.710938 534.066406 687.375 C 535.714844 687.035156 537.3125 686.539062 538.863281 685.878906 C 540.410156 685.21875 541.878906 684.410156 543.265625 683.457031 C 544.652344 682.5 545.929688 681.417969 547.097656 680.207031 C 549.574219 677.984375 549.878906 677.78125 551.445312 677.78125 C 552.960938 677.78125 553.3125 677.984375 555.789062 680.207031 C 556.371094 680.8125 556.980469 681.386719 557.621094 681.929688 C 558.261719 682.476562 558.925781 682.984375 559.617188 683.460938 C 560.308594 683.9375 561.023438 684.378906 561.757812 684.785156 C 562.496094 685.191406 563.25 685.558594 564.023438 685.886719 C 564.792969 686.214844 565.582031 686.503906 566.382812 686.753906 C 567.183594 687.003906 567.996094 687.210938 568.820312 687.378906 C 569.644531 687.546875 570.472656 687.675781 571.308594 687.757812 C 572.144531 687.84375 572.980469 687.886719 573.820312 687.886719 C 574.660156 687.886719 575.5 687.84375 576.335938 687.757812 C 577.171875 687.675781 578 687.546875 578.824219 687.378906 C 579.644531 687.210938 580.457031 687.003906 581.261719 686.753906 C 582.0625 686.503906 582.847656 686.214844 583.621094 685.886719 C 584.394531 685.558594 585.148438 685.191406 585.886719 684.785156 C 586.621094 684.378906 587.335938 683.9375 588.027344 683.460938 C 588.71875 682.984375 589.382812 682.476562 590.023438 681.929688 C 590.664062 681.386719 591.273438 680.8125 591.855469 680.207031 C 594.332031 677.984375 594.632812 677.78125 596.199219 677.78125 C 597.765625 677.78125 598.070312 677.984375 600.542969 680.207031 C 603.902344 683.539062 607.859375 685.84375 612.414062 687.128906 C 612.3125 695.261719 612.0625 702.382812 611.554688 708.089844 Z M 611.554688 708.089844 " fill-opacity="1" fill-rule="nonzero"/></svg>