<svg xmlns="http://www.w3.org/2000/svg" xmlns:xlink="http://www.w3.org/1999/xlink" width="1080" zoomAndPan="magnify" viewBox="0 0 810 809.999993" height="1080" preserveAspectRatio="xMidYMid meet" version="1.0"><defs><clipPath id="2dc5c90f9e"><path d="M 296.21875 192 L 513.554688 192 L 513.554688 220.828125 L 296.21875 220.828125 Z M 296.21875 192 " clip-rule="nonzero"/></clipPath><clipPath id="e039008764"><path d="M 154.746094 271 L 629.742188 271 L 629.742188 728.792969 L 154.746094 728.792969 Z M 154.746094 271 " clip-rule="nonzero"/></clipPath><clipPath id="2f2d8ebb53"><path d="M 360 269.785156 L 464 269.785156 L 464 315 L 360 315 Z M 360 269.785156 " clip-rule="nonzero"/></clipPath><clipPath id="af2495f336"><path d="M 567 292 L 654.742188 292 L 654.742188 554 L 567 554 Z M 567 292 " clip-rule="nonzero"/></clipPath></defs><path fill="#b84c65" d="M 377.644531 95.128906 C 375.035156 90.65625 371.023438 86.855469 365.765625 84.496094 C 359.535156 81.695312 352.214844 80.996094 345.835938 83.429688 C 332.164062 88.648438 329.945312 105.265625 335.652344 117.242188 C 341.792969 130.113281 357.128906 136.1875 369.683594 128.351562 C 382.054688 120.628906 383.945312 105.925781 377.644531 95.128906 " fill-opacity="1" fill-rule="nonzero"/><path fill="#b84c65" d="M 370.152344 102.585938 C 370.089844 102.433594 370.058594 102.269531 369.992188 102.117188 C 367.863281 97.207031 361.925781 92.53125 356.265625 93.378906 C 354.804688 93.210938 353.359375 93.230469 351.996094 93.542969 C 346.410156 94.820312 343.785156 100.453125 344.253906 105.808594 C 344.734375 111.328125 346.609375 116.863281 351.449219 120.035156 C 355.695312 122.820312 361.386719 123.074219 365.585938 120.109375 C 365.71875 120.015625 365.816406 119.894531 365.945312 119.796875 C 371.929688 116.488281 373.050781 108.640625 370.152344 102.585938 " fill-opacity="1" fill-rule="nonzero"/><path fill="#b84c65" d="M 441.042969 100.273438 C 443.652344 95.800781 447.664062 92 452.917969 89.640625 C 459.148438 86.839844 466.46875 86.140625 472.851562 88.574219 C 486.523438 93.792969 488.742188 110.410156 483.03125 122.386719 C 476.894531 135.261719 461.558594 141.332031 449.003906 133.496094 C 436.632812 125.773438 434.738281 111.074219 441.042969 100.273438 " fill-opacity="1" fill-rule="nonzero"/><path fill="#b84c65" d="M 448.535156 107.730469 C 448.59375 107.578125 448.628906 107.414062 448.691406 107.265625 C 450.820312 102.351562 456.761719 97.675781 462.417969 98.523438 C 463.878906 98.359375 465.328125 98.375 466.691406 98.6875 C 472.273438 99.96875 474.902344 105.597656 474.433594 110.953125 C 473.949219 116.472656 472.078125 122.007812 467.234375 125.183594 C 462.992188 127.964844 457.300781 128.21875 453.101562 125.257812 C 452.96875 125.164062 452.871094 125.042969 452.742188 124.945312 C 446.757812 121.632812 445.632812 113.785156 448.535156 107.730469 " fill-opacity="1" fill-rule="nonzero"/><path fill="#feefeb" d="M 507.082031 207.488281 C 507.625 198.730469 503.566406 187.046875 502.082031 181.835938 C 498.242188 168.371094 492.535156 155.367188 484.777344 143.699219 C 469.21875 120.285156 445.179688 103.578125 416.746094 101.382812 C 391.03125 99.394531 364.472656 107.515625 344.558594 124.402344 C 334.644531 132.8125 326.492188 143.261719 320.878906 155.007812 C 316.652344 163.847656 296.664062 214.039062 313.871094 217.953125 C 328.285156 221.230469 343.714844 219.730469 358.433594 219.765625 C 374.6875 219.804688 390.949219 219.847656 407.203125 219.851562 C 423.464844 219.859375 439.722656 219.867188 455.980469 219.875 C 470.449219 219.878906 486.59375 222.144531 500.507812 217.835938 C 505.015625 216.4375 506.78125 212.429688 507.082031 207.488281 " fill-opacity="1" fill-rule="nonzero"/><g clip-path="url(#2dc5c90f9e)"><path fill="#b84c65" d="M 503.976562 193.589844 C 472.261719 192.34375 440.484375 192.515625 408.746094 192.300781 L 408.746094 192.25 C 407.367188 192.261719 405.988281 192.261719 404.609375 192.273438 C 401.832031 192.25 399.050781 192.246094 396.273438 192.214844 C 379.65625 192.027344 322.433594 193.613281 305.273438 193.679688 C 293.054688 194.894531 293.179688 220.574219 305.785156 220.734375 C 338.828125 221.160156 371.917969 220.039062 404.96875 219.425781 C 437.960938 220.039062 470.992188 221.160156 503.976562 220.734375 C 516.761719 220.570312 516.734375 194.09375 503.976562 193.589844 " fill-opacity="1" fill-rule="nonzero"/></g><path fill="#b84c65" d="M 450.558594 184.167969 C 467.03125 184.167969 484.222656 183.5625 502.242188 182.378906 C 502.195312 182.210938 502.125 181.992188 502.082031 181.835938 C 501.25 178.917969 500.3125 176.027344 499.304688 173.164062 C 494.832031 173.371094 490.375 173.59375 485.972656 173.816406 C 462.285156 175.027344 437.789062 176.277344 413.566406 174.691406 C 393.097656 173.351562 376.015625 172.351562 358.148438 172.550781 C 352.59375 172.617188 346.925781 172.945312 340.921875 173.292969 C 331.796875 173.824219 322.484375 174.355469 313.519531 173.917969 C 312.738281 176.253906 311.972656 178.679688 311.253906 181.152344 C 318.632812 181.804688 326.253906 181.511719 333.347656 181.207031 C 336.761719 181.0625 340.101562 180.917969 343.296875 180.882812 C 366.667969 180.628906 386.1875 181.144531 404.738281 182.523438 C 419.460938 183.621094 434.683594 184.167969 450.558594 184.167969 " fill-opacity="1" fill-rule="nonzero"/><path fill="#b84c65" d="M 326.191406 163.25 C 330.339844 163.25 334.539062 163.007812 338.5625 162.773438 C 342.375 162.550781 345.980469 162.355469 349.167969 162.367188 C 368.425781 162.523438 389.042969 162.460938 412.183594 162.179688 C 432.125 161.933594 452.3125 161.515625 472.183594 160.933594 C 475.441406 160.835938 478.769531 160.828125 482.125 160.816406 C 486.128906 160.804688 490.171875 160.773438 494.199219 160.621094 C 492.851562 157.722656 491.414062 154.867188 489.859375 152.074219 C 485.464844 152.226562 481.070312 152.296875 476.722656 152.359375 C 473.160156 152.410156 469.613281 152.457031 466.101562 152.554688 C 448.070312 153.046875 429.917969 153.410156 412.144531 153.628906 C 397.761719 153.804688 382.8125 153.890625 366.597656 153.890625 C 364.765625 153.890625 362.960938 153.863281 361.046875 153.886719 C 356.550781 153.886719 351.589844 154.171875 346.339844 154.476562 C 338.0625 154.957031 329.152344 155.441406 320.964844 154.839844 C 320.9375 154.894531 320.90625 154.949219 320.878906 155.007812 C 320.152344 156.523438 318.960938 159.273438 317.574219 162.78125 C 320.378906 163.113281 323.269531 163.25 326.191406 163.25 " fill-opacity="1" fill-rule="nonzero"/><path fill="#b84c65" d="M 391.21875 107.9375 C 400.335938 107.9375 409.375 107.125 418.25 106.328125 C 423.847656 105.828125 429.523438 105.324219 435.230469 105.023438 C 429.316406 103.144531 423.152344 101.878906 416.746094 101.382812 C 402.757812 100.300781 388.53125 102.234375 375.25 106.917969 C 380.585938 107.628906 385.914062 107.9375 391.21875 107.9375 " fill-opacity="1" fill-rule="nonzero"/><path fill="#b84c65" d="M 369.996094 115.949219 C 372.734375 116.363281 375.4375 116.820312 378.128906 117.273438 C 386.496094 118.6875 394.417969 120.023438 402.960938 120.023438 C 403.347656 120.023438 403.742188 120.023438 404.132812 120.015625 C 413.257812 119.882812 422.160156 119 430.765625 118.144531 C 440.070312 117.21875 449.097656 116.355469 458.195312 116.359375 C 453.90625 113.398438 449.378906 110.8125 444.640625 108.652344 C 439.550781 109.089844 434.46875 109.71875 429.429688 110.351562 C 422.746094 111.1875 415.832031 112.058594 409.199219 112.398438 C 396.621094 113.058594 384.039062 111.222656 371.875 109.457031 C 371.089844 109.34375 370.296875 109.234375 369.507812 109.121094 C 365.613281 110.765625 361.835938 112.683594 358.179688 114.816406 C 362.125 115.03125 366.082031 115.363281 369.996094 115.949219 " fill-opacity="1" fill-rule="nonzero"/><path fill="#b84c65" d="M 415.285156 125.171875 C 411.640625 125.464844 407.976562 125.753906 404.296875 126.035156 C 396.394531 126.636719 388.535156 125.757812 380.9375 124.910156 C 375.808594 124.332031 370.5 123.738281 365.144531 123.585938 C 358.472656 123.398438 351.480469 123.886719 343.835938 125.050781 C 340.949219 127.550781 338.230469 130.226562 335.671875 133.054688 C 336.316406 132.96875 336.960938 132.898438 337.605469 132.8125 C 346.589844 131.601562 355.871094 130.332031 365.054688 130.628906 C 370.523438 130.789062 375.859375 131.363281 381.015625 131.921875 C 389.507812 132.839844 398.289062 133.78125 407.601562 132.839844 C 431.695312 130.386719 453.226562 129.460938 473.945312 130.007812 C 471.480469 127.371094 468.886719 124.875 466.171875 122.535156 C 449.285156 122.46875 432.59375 123.785156 415.285156 125.171875 " fill-opacity="1" fill-rule="nonzero"/><path fill="#b84c65" d="M 380.128906 147.832031 C 412.0625 147.832031 444.03125 146.578125 475.320312 145.351562 C 478.742188 145.214844 482.15625 145.089844 485.574219 144.957031 C 485.304688 144.539062 485.054688 144.113281 484.777344 143.699219 C 483.433594 141.679688 482.003906 139.726562 480.539062 137.808594 C 447.960938 139.324219 415.160156 139.503906 383.261719 139.660156 C 365.757812 139.75 347.726562 139.851562 329.851562 140.164062 C 328.367188 142.171875 326.9375 144.226562 325.617188 146.351562 C 343.699219 147.40625 361.902344 147.832031 380.128906 147.832031 " fill-opacity="1" fill-rule="nonzero"/><g clip-path="url(#e039008764)"><path fill="#feefeb" d="M 529.832031 298.425781 C 39.769531 126.804688 134.640625 841.496094 237.363281 451.632812 C 241.492188 435.96875 247.757812 435.917969 249.320312 452.039062 C 256.902344 530.375 240.128906 668.8125 309.769531 708.390625 C 323.847656 716.394531 349.8125 722.171875 365.695312 725.296875 C 632.050781 777.597656 487.714844 221.261719 569.992188 528.878906 C 574.179688 544.527344 588.738281 565.578125 604.800781 567.621094 C 666.949219 575.535156 596.554688 404.453125 568.101562 335.972656 C 561.882812 321.011719 545.113281 303.773438 529.832031 298.425781 " fill-opacity="1" fill-rule="nonzero"/></g><path fill="#b84c65" d="M 319.75 648.574219 C 309.847656 644.1875 299.253906 644.167969 287.488281 648.410156 C 293.878906 675.792969 316.796875 696.238281 357.230469 710.335938 C 360.746094 711.566406 363.976562 707.941406 362.542969 704.507812 C 349.984375 674.5 335.636719 655.625 319.75 648.574219 " fill-opacity="1" fill-rule="nonzero"/><path fill="#b84c65" d="M 283.132812 430.960938 L 406.691406 322.632812 C 399.839844 322.175781 393.230469 319.390625 388.351562 314.050781 L 350.605469 272.75 L 251.636719 282.589844 C 258.65625 302.738281 265.203125 337.03125 264.324219 358.554688 C 263.859375 369.890625 263.574219 382.042969 264.636719 394.066406 L 286.308594 639.964844 C 299.429688 635.613281 311.792969 635.929688 323.128906 640.953125 C 340.5625 648.679688 355.539062 667.4375 368.6875 697.660156 L 368.6875 679.464844 L 301.558594 607.367188 L 283.132812 430.960938 " fill-opacity="1" fill-rule="nonzero"/><g clip-path="url(#2f2d8ebb53)"><path fill="#b84c65" d="M 419.488281 311.414062 L 436.613281 296.398438 L 463.4375 271.851562 L 455.417969 271.058594 L 380.171875 269.8125 L 360.964844 271.722656 L 394.503906 308.414062 C 400.796875 315.3125 411.257812 316.3125 419.488281 311.414062 " fill-opacity="1" fill-rule="nonzero"/></g><path fill="#b84c65" d="M 256 358.210938 C 256.773438 339.230469 251.480469 309.945312 245.375 290.347656 C 229.03125 328.011719 170.597656 467.992188 166.128906 553.414062 L 206.195312 553.414062 C 210.089844 533.53125 224.625 435.6875 256.058594 390.335938 C 255.363281 379.351562 255.578125 368.449219 256 358.210938 " fill-opacity="1" fill-rule="nonzero"/><path fill="#b84c65" d="M 390.988281 694.097656 C 394.152344 694.097656 396.71875 696.144531 396.71875 698.671875 C 396.71875 701.195312 394.152344 703.242188 390.988281 703.242188 C 387.820312 703.242188 385.257812 701.195312 385.257812 698.671875 C 385.257812 696.144531 387.820312 694.097656 390.988281 694.097656 Z M 435.265625 694.097656 C 438.429688 694.097656 440.996094 696.144531 440.996094 698.671875 C 440.996094 701.195312 438.429688 703.242188 435.265625 703.242188 C 432.101562 703.242188 429.535156 701.195312 429.535156 698.671875 C 429.535156 696.144531 432.101562 694.097656 435.265625 694.097656 Z M 377.023438 715.128906 L 446.625 715.171875 L 446.625 681.996094 L 377.023438 681.996094 L 377.023438 715.128906 " fill-opacity="1" fill-rule="nonzero"/><g clip-path="url(#af2495f336)"><path fill="#b84c65" d="M 567.324219 357.03125 C 567.867188 366.277344 568.285156 378.089844 567.578125 390.175781 C 598.96875 435.476562 613.78125 533.292969 617.253906 553.414062 L 654.742188 553.414062 C 650.363281 469.75 594.214844 333.738281 576.542969 292.761719 C 570.800781 309.96875 566.140625 336.921875 567.324219 357.03125 " fill-opacity="1" fill-rule="nonzero"/></g><path fill="#b84c65" d="M 503.902344 648.574219 C 488.027344 655.621094 473.695312 674.464844 461.144531 704.425781 C 459.703125 707.867188 462.953125 711.496094 466.472656 710.25 C 506.921875 695.980469 529.804688 675.636719 536.148438 648.40625 C 524.386719 644.167969 513.800781 644.191406 503.902344 648.574219 " fill-opacity="1" fill-rule="nonzero"/><path fill="#b84c65" d="M 474.289062 272.921875 C 474.011719 273.324219 473.734375 273.722656 473.367188 274.0625 L 428.765625 314.882812 C 427.417969 316.117188 425.972656 317.175781 424.480469 318.121094 L 291.875 434.382812 L 309.558594 603.714844 L 374.667969 673.652344 L 454.960938 673.652344 L 454.960938 697.664062 C 468.105469 667.445312 483.089844 648.6875 500.523438 640.953125 C 511.855469 635.929688 524.21875 635.613281 537.34375 639.964844 L 558.976562 394.519531 C 560.148438 381.246094 559.609375 367.777344 559.007812 357.519531 C 557.675781 334.96875 563.507812 301.039062 571.445312 282.535156 L 474.289062 272.921875 " fill-opacity="1" fill-rule="nonzero"/></svg>