<svg xmlns="http://www.w3.org/2000/svg" xmlns:xlink="http://www.w3.org/1999/xlink" width="1080" zoomAndPan="magnify" viewBox="0 0 810 809.999993" height="1080" preserveAspectRatio="xMidYMid meet" version="1.0"><defs><clipPath id="ac4bcec983"><path d="M 15 82.191406 L 797 82.191406 L 797 727.941406 L 15 727.941406 Z M 15 82.191406 " clip-rule="nonzero"/></clipPath></defs><g clip-path="url(#ac4bcec983)"><path fill="#b84c65" d="M 398.246094 211.644531 C 402.683594 202.09375 416.648438 205.363281 416.648438 215.546875 L 416.648438 234.769531 C 416.648438 236.160156 416.371094 237.394531 415.824219 238.671875 C 411.390625 248.222656 397.421875 244.953125 397.421875 234.769531 L 397.421875 215.546875 C 397.421875 214.15625 397.699219 212.921875 398.246094 211.644531 Z M 397.421875 427.011719 L 397.421875 407.789062 C 397.421875 406.398438 397.699219 405.164062 398.246094 403.886719 C 402.683594 394.335938 416.648438 397.605469 416.648438 407.789062 L 416.648438 427.011719 C 416.648438 428.402344 416.371094 429.636719 415.824219 430.914062 C 411.390625 440.46875 397.421875 437.195312 397.421875 427.011719 Z M 398.246094 365.4375 C 402.683594 355.886719 416.648438 359.160156 416.648438 369.339844 L 416.648438 388.566406 C 416.648438 389.953125 416.371094 391.1875 415.824219 392.46875 C 411.390625 402.019531 397.421875 398.746094 397.421875 388.566406 L 397.421875 369.339844 C 397.421875 367.949219 397.699219 366.71875 398.246094 365.4375 Z M 397.421875 330.890625 C 397.421875 329.503906 397.699219 328.269531 398.246094 326.988281 C 402.683594 317.4375 416.648438 320.710938 416.648438 330.890625 L 416.648438 350.117188 C 416.648438 351.507812 416.371094 352.738281 415.824219 354.019531 C 411.390625 363.570312 397.421875 360.296875 397.421875 350.117188 Z M 397.421875 311.667969 L 397.421875 292.445312 C 397.421875 291.054688 397.699219 289.820312 398.246094 288.539062 C 402.683594 278.988281 416.648438 282.261719 416.648438 292.445312 L 416.648438 311.667969 C 416.648438 313.058594 416.371094 314.292969 415.824219 315.570312 C 411.390625 325.121094 397.421875 321.851562 397.421875 311.667969 Z M 397.421875 273.21875 L 397.421875 253.996094 C 397.421875 252.605469 397.699219 251.371094 398.246094 250.09375 C 402.683594 240.542969 416.648438 243.8125 416.648438 253.996094 L 416.648438 273.21875 C 416.648438 274.609375 416.371094 275.84375 415.824219 277.121094 C 411.390625 286.671875 397.421875 283.402344 397.421875 273.21875 Z M 405.5625 458.488281 Z M 461.210938 564.125 Z M 369.691406 473.996094 C 373.308594 470.984375 387.640625 459.960938 405.5625 458.480469 C 406.28125 458.421875 406.984375 458.445312 407.667969 458.539062 C 428.164062 460.449219 443.839844 474.71875 443.886719 474.761719 L 443.914062 474.726562 C 445.730469 476.375 446.773438 478.554688 447.019531 480.816406 L 461.230469 564.121094 C 461.445312 565.378906 461.402344 566.621094 461.144531 567.792969 L 446.964844 680.089844 C 444.683594 698.160156 454.914062 712.699219 469.496094 720.65625 C 475.542969 723.957031 482.3125 726.152344 489.257812 727.035156 C 496.125 727.90625 503.1875 727.488281 509.910156 725.585938 C 526.882812 720.773438 541.675781 705.929688 545.511719 677.609375 L 560.527344 566.835938 L 545.585938 483.546875 L 545.546875 483.550781 C 545.414062 482.800781 545.371094 482.050781 545.410156 481.316406 C 545.03125 468.140625 539.96875 291.339844 542.207031 259.53125 C 543.101562 246.796875 549.371094 236.992188 563.386719 239.109375 C 575.695312 240.421875 592.175781 251.789062 610.273438 264.261719 C 620.96875 271.636719 632.285156 279.441406 643.066406 285.402344 C 683.945312 308 724.042969 271.144531 758.714844 239.269531 C 766.769531 231.867188 774.5625 224.703125 782.007812 218.539062 L 783.476562 217.273438 C 791.203125 210.230469 795.792969 200.617188 796.78125 190.773438 C 797.757812 181.082031 795.226562 171.183594 788.753906 163.367188 L 787.640625 162.078125 C 779.492188 153.136719 769.480469 147.738281 759.222656 146.773438 C 749.671875 145.878906 739.667969 148.839844 730.527344 156.402344 C 671.300781 205.441406 636.109375 171.753906 585.539062 123.332031 C 571.867188 110.242188 556.964844 95.972656 540.066406 82.15625 L 517.765625 82.15625 C 515.46875 109.308594 503.5 133.707031 485.316406 151.894531 C 465.015625 172.1875 436.96875 184.742188 405.992188 184.742188 C 375.019531 184.742188 346.96875 172.1875 326.671875 151.890625 C 308.492188 133.71875 296.527344 109.332031 294.222656 82.195312 L 272.574219 82.195312 C 255.695312 96 240.808594 110.253906 227.152344 123.332031 C 176.582031 171.753906 141.390625 205.441406 82.160156 156.402344 C 67.660156 144.394531 51.273438 144.746094 38.414062 151.742188 C 28.46875 157.15625 20.191406 166.730469 16.753906 177.5625 C 12.578125 190.695312 15.589844 206.042969 30.683594 218.539062 C 38.125 224.703125 45.914062 231.859375 53.960938 239.261719 C 88.636719 271.136719 128.742188 308 169.625 285.398438 C 180.40625 279.441406 191.722656 271.636719 202.421875 264.257812 C 213.089844 256.902344 237.679688 238.996094 250.714844 238.996094 C 262.199219 238.398438 269.402344 244.148438 270.484375 259.527344 C 272.808594 292.527344 267.273438 481.574219 267.257812 482.117188 L 267.289062 482.125 C 267.269531 482.910156 267.152344 483.667969 266.953125 484.394531 L 252.164062 566.835938 L 267.183594 677.609375 C 271.015625 705.925781 285.851562 720.792969 302.871094 725.621094 C 309.59375 727.527344 316.664062 727.949219 323.527344 727.082031 C 330.472656 726.199219 337.238281 724.011719 343.28125 720.710938 C 357.824219 712.765625 368.019531 698.230469 365.730469 680.089844 L 351.4375 566.9375 L 351.402344 566.941406 C 351.25 565.757812 351.324219 564.601562 351.585938 563.507812 L 365.761719 480.277344 L 365.75 480.242188 C 366.199219 477.613281 367.667969 475.417969 369.691406 473.996094 Z M 369.691406 473.996094 " fill-opacity="1" fill-rule="evenodd"/></g></svg>