<?xml version="1.0" encoding="utf-8"?>
<!-- Generator: Adobe Illustrator 26.0.1, SVG Export Plug-In . SVG Version: 6.00 Build 0)  -->
<svg version="1.1" xmlns="http://www.w3.org/2000/svg" xmlns:xlink="http://www.w3.org/1999/xlink" x="0px" y="0px"
	 viewBox="0 0 20 20" style="enable-background:new 0 0 20 20;" xml:space="preserve">
<style type="text/css">
	.st0{display:none;}
	.st1{display:inline;fill:#0D0D0D;}
	.st2{display:inline;}
	.st3{fill:#33A67C;}
	.st4{fill:#4B7DBF;}
	.st5{fill:#F288AF;}
	.st6{fill-rule:evenodd;clip-rule:evenodd;fill:#FCECEF;}
	.st7{fill-rule:evenodd;clip-rule:evenodd;fill:none;stroke:#FF0000;stroke-width:1.0676;stroke-miterlimit:10;}
	.st8{fill-rule:evenodd;clip-rule:evenodd;fill:#FF0000;}
	.st9{fill:#0D0D0D;}
	.st10{fill:#F2DFBB;}
	.st11{fill:#F2B705;}
	.st12{fill:#F23A29;}
	.st13{display:inline;fill:#EEDFBF;}
	.st14{display:inline;fill:#0D0D0D;stroke:#F2DFBB;stroke-width:5.0393;stroke-miterlimit:10;}
	.st15{display:inline;fill:#0D0D0D;stroke:#F2DFBB;stroke-width:0.9657;stroke-miterlimit:10;}
	.st16{fill-rule:evenodd;clip-rule:evenodd;fill:#B84C65;}
</style>
<g id="Web_Banner_02:_468_x__x_60_px">
	<g id="Background" class="st0">
	</g>
	<g id="Graphic_Elements" class="st0">
	</g>
	<g id="Text" class="st0">
	</g>
</g>
<g id="Web_Banner_01:_468_x__x_60_px_2_" class="st0">
	<g id="Background_1_" class="st2">
	</g>
	<g id="Graphic_Elements_1_" class="st2">
	</g>
	<g id="Text_1_" class="st2">
	</g>
</g>
<g id="Square_02:_250_x__x_250_px" class="st0">
	<g id="Background_2_" class="st2">
	</g>
	<g id="Graphic_Elements_2_" class="st2">
	</g>
	<g id="Text_2_" class="st2">
	</g>
</g>
<g id="Square_01:_250_x__x_250_px">
	<g id="Background_3_" class="st0">
		<rect x="-115" y="-115" class="st13" width="250" height="250"/>
	</g>
	<g id="Graphic_Elements_3_" class="st0">
		<path class="st1" d="M22.3,88.6c-0.8-1.6-3.6-0.5-3,1.3c4,11.6,3.2,23.9,1.3,35.9c-0.5,3.1-1.1,6.2-1.7,9.3h10.6
			c0.4-3.9,0.6-7.8,0.6-11.7C30.3,111.3,27.7,99.3,22.3,88.6z M102.1,28.5c0.1,8.7,1.8,18.2,6.6,25.7c4.9,7.6,12.2,12.9,20.4,16.6
			c1.9,0.9,3.9,1.6,5.9,2.4V55.5c-4.2-3.7-7.7-8-9.5-13.8c-4.4-14.2-0.5-29.2,1.6-43.5c2.5-17.1,2.6-35-7.8-49.7
			c-8.7-12.2-22.3-19.8-36.8-23c-17.5-3.9-34.7-1.4-51.9,2.7c-9,2.2-17.9,4.6-26.9,6.3c-5.7,1.1-14.2,3.6-19.5,0.1
			c-1.2-0.8-2.4-2.3-3.3-4c-1.2-2.4-1.8-5.5-2.3-8.3c-1.3-6.4-1.8-13-3.9-19.1c-2.8-8.2-8.1-14.2-14.8-18.2h-39.6
			c6,9.8,7.2,22.5,5.1,33.7c-3.4,18.1-13.7,34.2-22.4,50.1c-5.2,9.4-11.2,19-16,29c0.5-6.6,2-13.3,4.6-19.4
			c5.1-12.1,13-22.8,19.1-34.4c9.4-18.2,14.3-40.2,6.8-59h-6.6c2.8,9,2.8,18.7-1.5,27.6c-5.4,11.3-14.6,19.8-22.2,29.4
			c-0.8,1-1.5,1.9-2.2,2.9v75.6c0.4-2.7,1.1-5.3,1.9-7.9c2.8-8.7,7.3-16.6,11.6-24.6c4.8-8.7,9.5-17.4,14.2-26.1
			c8.6-15.8,18-32.5,18.7-51c0.3-8.8-1.7-17.7-6-25.1c1.8,2,3.4,4.2,4.6,6.6c7.9,14.8,2.4,33.9-3.8,48.3
			C-86.1-30.2-110.3,1.5-99.1,35c7.2,21.4,25.6,30.8,45.8,33.8c-4.9,1.6-9.8,2.9-15,3.5c-14.4,1.5-28-5.1-37.2-16.2
			c-5.2-6.2-8.3-13.2-9.5-20.5v17.9c0.5,0.9,1,1.8,1.6,2.6c7.2,10.8,18.4,19.2,31.1,22.2c11.2,2.6,22.2,0.7,32.9-2.5
			c-7.8,3.3-15.3,7.1-23.5,9.4c-15.1,4.2-36.2,1.3-40.5-16.6c-0.2-0.9-0.8-1.5-1.6-1.7v13.9c4.5,7.7,12.7,13,21.9,14.7
			c17.7,3.2,33.8-4.6,49.7-11c14.2-5.7,36.3-9,42.4,9.7c2.8,8.4,1.9,17.3-1.1,25.5c-1.9,5.2-4.3,10.2-5.4,15.4h17
			c-0.1-2.2,0.3-4.5,0.6-6.6c1.2-7.7,2.6-14.9,1.6-22.7C10.8,98.3,8.3,91.3,4.6,85c-6.4-11.1-18-15.8-30.2-15.4
			c0.6,0,1.3-0.1,1.9-0.1c12.9-1.1,25.7-3.1,38.6-4.1c10.5,3.3,20,9.4,27.5,17.6c-1.3,0-2.5,0.8-2.8,2.5c-2.9,17.6,2.7,34,10.2,49.6
			h7.9c-5-15.3-9.2-30.8-10.9-46.7c3.2,4.5,5.9,9.4,7.6,14.7c2.6,7.9,2.4,16.6,5.7,24.2c1.4,3.1,3.2,5.7,5.5,7.8h20.5
			c-2.1-0.8-4.2-1.7-6.2-2.7c-6.5-3.4-9.5-8.8-10.7-15.9c-2.4-14.2-7-26.6-16.7-37.6c-4.9-5.6-10.5-10.3-16.7-14.2
			c13.6,0.4,28.1,3,38.2,12.1c2.9,2.6,5.4,5.7,6.9,9.2c1.6,3.8,1.4,7.7,1.6,11.7c0.6,9.4,1.8,18.8,9.2,25.5c2.6,2.4,5.5,4.2,8.6,5.5
			c-1.7-0.5-3.4-1-5.1-1.8c-9.6-4.1-16.7-12.1-18.9-22.4c-2-9.6-2-19.4-8.6-27.3c-1-1.2-3,0.4-2.2,1.7c5.6,9.5,2.2,21.5,5.2,31.9
			c2.6,9.1,9,16.7,16.8,21.8c1.3,0.9,2.7,1.7,4.1,2.3h40.7c0.8-0.4,1.7-0.7,2.5-1.1v-5.6c-0.8,0.1-1.5,0.2-2.2,0.3
			c-2.7,0.5-5.5,0.9-8.3,1.2c3.7-1.1,7.3-2.6,10.6-4.6v-13.5c-11.4,2.1-29.1,6.3-33.1-7.7c-2.2-7.7-1.8-15.3-5.8-22.5
			c-3.7-6.6-9.8-11.9-16.2-15.8C57.3,52,32.2,52.1,7.1,54.2c-9.4-1.2-19-0.6-28.5,2.2c-0.6,0.2-1.2,0.4-1.8,0.6
			c-12.8,0.9-26.1,0.9-38-4c-13.2-5.4-21.3-16.5-22.8-30.6C-87.4-12-57.6-38.4-53.4-71.4c1.9-15-0.3-31.5-10.1-43.2
			c10.9,0.9,23.7,4,26.2,14.5c3,12.5-2.3,25.5,0.6,38.1c4.2,18.1,23.1,22.5,39.2,20.3c17.7-2.4,34.8-7.9,52.3-10.8
			c12.5-2.1,25.5-1.9,36.7,3.8c4.8,2.4,9.1,5.6,12.2,10.1c4.2,6.2,4.6,14,4.2,21.3C107.1-1.9,102,13,102.1,28.5z M-32.6,69.9
			c1.3,0,2.6-0.1,3.9-0.2c-0.2,0-0.3,0-0.5,0c-2,0.2-4,0.6-5.9,1C-34.3,70.5-33.5,70.2-32.6,69.9z M-94.1-115h-3.7
			c0.3,2.3,0.4,4.5,0.2,6.8c-0.6,6.5-4.3,9.8-10.1,12.3c-2.5,1.1-5,2.3-7.4,3.7v22.5c1.4-1.9,2.8-3.7,4.2-5.5
			c5.5-7,12.1-13.5,14.9-22.1C-93.8-103.6-93.4-109.2-94.1-115z M-107.9-115c-0.3,0.6-0.7,1.2-1.1,1.7c-1.7,2.4-3.8,4.5-6,6.4v6
			c5.3-2.8,10.1-6,13.4-11.3c0.6-0.9,1.1-1.9,1.5-2.9H-107.9z"/>
		<ellipse transform="matrix(0.2298 -0.9732 0.9732 0.2298 -2.0302 17.4349)" class="st14" cx="10" cy="10" rx="100.1" ry="100.1"/>
		<circle class="st15" cx="10" cy="10" r="91"/>
	</g>
	<g id="Text_3_" class="st0">
		<g class="st2">
			<g>
				<path class="st3" d="M1.9,5.4C2.4,1.3,3-3.9,2.5-8.7c-0.4-4.2,0.2-7.1,2.6-6.1c2.3,1,3.9,6.7,5.3,11c2.8,9.2,5.9,18.3,8.8,27.4
					c1.5,4.8,3.1,2.2,3.4,5.6c0.4,4.4-4.2,3.7-5.6,3.2c-3.9-1.3-5.7-2.3-6.1-6c-0.3-2.9,1.2-1.3,0.9-3.4c-0.3-2.7-0.5-3.2-4.9-4.6
					c-1.4-0.5-2.3-0.5-1.9,2.4c0.3,2.4,1.9,1.3,2.4,4.4c0.5,3.6-2.5,2.8-3.7,2.6c-4.5-0.8-5.8-2-6.2-3.9c-0.5-2.8,1.7-1.9,2.4-4
					c0.5-1.6,0.8-4.4,1-6.3C1.3,10.3,1.5,8.7,1.9,5.4z M8.4,11.6c0.2,0.1,1,0.5,0.9-0.5c-0.1-0.9-1.2-4.4-1.5-5.3
					C7.5,4.8,6.7,2.3,6.1,2.1C5.5,1.8,5.4,5.4,5.4,6c0,0.6-0.2,2.9-0.1,3.7c0.1,1.1,0.8,1.1,1.1,1.2C7.2,11.2,7.7,11.4,8.4,11.6z"/>
			</g>
		</g>
	</g>
	<path class="st16" d="M14.3,12c0,1.8,0.1,2.1-0.4,2.4c-0.4,0.2-1.2,0.3-1.3,1.4c0,0.9-1.5,0.7-4,0.8c-0.4,0-0.6-0.2-0.8-0.5
		c-0.3-0.9-0.8-1.2-1.4-1.2c-0.9-0.1-1-0.4-0.7-3.6c0.1-0.9,0.4-1.8,0.8-2.6c0.1-0.2,0.3-0.4,0.6-0.3c6.2,0.5,6.5-1,6.9,0.4
		C14.5,10.1,14.2,12,14.3,12"/>
	<path class="st16" d="M8.2,8.8c-0.4,0-0.5,0-1-1.7C6.4,3.8,4.4,2.9,7,2.6c0.3,0,0.5,0.1,0.6,0.4c0.5,1.7,1.3,3.3,1.9,5
		C9.8,8.9,9.5,8.7,8.2,8.8"/>
	<g>
		<g>
			<path class="st16" d="M11.4,8.8c-0.4,0-0.5-0.3-0.4-0.7C12.3,4.7,12.5,3,12.6,3c0.1-0.6,0.6-0.4,1.6,0c0.4,0.2,0.3,0.6-0.1,1.9
				C12.7,8.7,12.9,9,11.4,8.8"/>
		</g>
	</g>
	<path class="st6" d="M12.4,9.6c0,0.8-1.1,0.7-1.1,0C11.3,8.9,12.4,8.9,12.4,9.6"/>
	<path class="st6" d="M9.2,9.5c0,0.7-1.1,0.7-1.1,0C8.1,8.7,9.2,8.7,9.2,9.5"/>
</g>
</svg>
