<svg xmlns="http://www.w3.org/2000/svg" xmlns:xlink="http://www.w3.org/1999/xlink" width="1080" zoomAndPan="magnify" viewBox="0 0 810 809.999993" height="1080" preserveAspectRatio="xMidYMid meet" version="1.0"><defs><clipPath id="47f1ef74c9"><path d="M 101.25 81 L 708.75 81 L 708.75 729 L 101.25 729 Z M 101.25 81 " clip-rule="nonzero"/></clipPath></defs><g clip-path="url(#47f1ef74c9)"><path fill="#b84c65" d="M 697.488281 192.683594 L 554.292969 192.683594 L 554.292969 91.671875 C 554.292969 89.894531 553.785156 88.242188 553.023438 86.71875 C 553.023438 86.589844 552.894531 86.464844 552.894531 86.464844 C 552.515625 85.828125 552.132812 85.191406 551.625 84.683594 C 551.5 84.558594 551.5 84.429688 551.371094 84.429688 C 550.226562 83.285156 548.832031 82.269531 547.304688 81.636719 C 547.050781 81.507812 546.671875 81.507812 546.417969 81.382812 C 545.90625 81.253906 545.527344 81.128906 545.019531 81.128906 C 544.636719 81 544.257812 81 543.75 81 C 543.621094 81 543.492188 81 543.238281 81 L 112.511719 81 C 106.539062 81 101.582031 85.828125 101.582031 91.925781 L 101.582031 606.007812 C 101.582031 611.980469 106.410156 616.933594 112.511719 616.933594 L 255.832031 616.933594 L 255.832031 718.074219 C 255.832031 724.042969 260.660156 729 266.761719 729 L 697.488281 729 C 703.460938 729 708.417969 724.171875 708.417969 718.074219 L 708.417969 203.613281 C 708.417969 197.640625 703.460938 192.683594 697.488281 192.683594 Z M 262.695312 193.574219 C 261.675781 194.082031 260.660156 194.589844 259.773438 195.351562 C 259.644531 195.480469 259.519531 195.605469 259.390625 195.734375 C 258.628906 196.496094 257.992188 197.257812 257.484375 198.148438 C 257.359375 198.402344 257.230469 198.65625 257.101562 198.910156 C 256.722656 199.800781 256.339844 200.6875 256.214844 201.707031 C 256.214844 201.960938 256.214844 202.339844 256.085938 202.59375 C 256.085938 202.976562 255.960938 203.359375 255.960938 203.613281 L 255.960938 594.824219 L 123.4375 594.824219 L 123.4375 102.601562 L 487.207031 102.601562 Z M 532.441406 107.808594 L 532.441406 192.683594 L 322.792969 192.683594 Z M 686.5625 706.890625 L 277.6875 706.890625 L 277.6875 214.539062 L 543.238281 214.539062 C 543.367188 214.539062 543.367188 214.539062 543.492188 214.539062 L 686.5625 214.539062 Z M 412.878906 254.5625 L 321.269531 254.5625 C 315.296875 254.5625 310.339844 259.390625 310.339844 265.488281 L 310.339844 357.097656 C 310.339844 363.070312 315.167969 368.027344 321.269531 368.027344 L 412.878906 368.027344 C 418.847656 368.027344 423.804688 363.199219 423.804688 357.097656 L 423.804688 265.488281 C 423.804688 259.519531 418.976562 254.5625 412.878906 254.5625 Z M 401.949219 346.300781 L 332.066406 346.300781 L 332.066406 276.417969 L 401.949219 276.417969 Z M 412.878906 399.535156 L 321.269531 399.535156 C 315.296875 399.535156 310.339844 404.363281 310.339844 410.464844 L 310.339844 502.074219 C 310.339844 508.042969 315.167969 513 321.269531 513 L 412.878906 513 C 418.847656 513 423.804688 508.171875 423.804688 502.074219 L 423.804688 410.464844 C 423.804688 404.363281 418.976562 399.535156 412.878906 399.535156 Z M 401.949219 491.144531 L 332.066406 491.144531 L 332.066406 421.261719 L 401.949219 421.261719 Z M 412.878906 544.636719 L 321.269531 544.636719 C 315.296875 544.636719 310.339844 549.464844 310.339844 555.566406 L 310.339844 647.175781 C 310.339844 653.144531 315.167969 658.101562 321.269531 658.101562 L 412.878906 658.101562 C 418.847656 658.101562 423.804688 653.273438 423.804688 647.175781 L 423.804688 555.566406 C 423.804688 549.464844 418.976562 544.636719 412.878906 544.636719 Z M 401.949219 636.246094 L 332.066406 636.246094 L 332.066406 566.363281 L 401.949219 566.363281 Z M 467.386719 263.203125 L 572.84375 263.203125 C 578.816406 263.203125 583.773438 268.03125 583.773438 274.128906 C 583.773438 280.226562 578.945312 285.054688 572.84375 285.054688 L 467.386719 285.054688 C 461.414062 285.054688 456.457031 280.226562 456.457031 274.128906 C 456.457031 268.03125 461.285156 263.203125 467.386719 263.203125 Z M 467.386719 300.175781 L 639.167969 300.175781 C 645.140625 300.175781 650.097656 305.003906 650.097656 311.105469 C 650.097656 317.203125 645.269531 322.03125 639.167969 322.03125 L 467.386719 322.03125 C 461.414062 322.03125 456.457031 317.203125 456.457031 311.105469 C 456.457031 305.003906 461.285156 300.175781 467.386719 300.175781 Z M 649.96875 348.585938 C 649.96875 354.558594 645.140625 359.511719 639.042969 359.511719 L 467.386719 359.511719 C 461.414062 359.511719 456.457031 354.683594 456.457031 348.585938 C 456.457031 342.613281 461.285156 337.660156 467.386719 337.660156 L 639.167969 337.660156 C 645.140625 337.660156 649.96875 342.613281 649.96875 348.585938 Z M 456.457031 418.976562 C 456.457031 413.003906 461.285156 408.050781 467.386719 408.050781 L 572.84375 408.050781 C 578.816406 408.050781 583.773438 412.878906 583.773438 418.976562 C 583.773438 424.949219 578.945312 429.902344 572.84375 429.902344 L 467.386719 429.902344 C 461.285156 429.902344 456.457031 425.074219 456.457031 418.976562 Z M 649.96875 456.078125 C 649.96875 462.050781 645.140625 467.003906 639.042969 467.003906 L 467.386719 467.003906 C 461.414062 467.003906 456.457031 462.175781 456.457031 456.078125 C 456.457031 449.980469 461.285156 445.152344 467.386719 445.152344 L 639.167969 445.152344 C 645.140625 445.152344 649.96875 449.980469 649.96875 456.078125 Z M 649.96875 493.558594 C 649.96875 499.53125 645.140625 504.488281 639.042969 504.488281 L 467.386719 504.488281 C 461.414062 504.488281 456.457031 499.660156 456.457031 493.558594 C 456.457031 487.589844 461.285156 482.632812 467.386719 482.632812 L 639.167969 482.632812 C 645.140625 482.632812 649.96875 487.460938 649.96875 493.558594 Z M 456.457031 563.949219 C 456.457031 557.980469 461.285156 553.023438 467.386719 553.023438 L 572.84375 553.023438 C 578.816406 553.023438 583.773438 557.851562 583.773438 563.949219 C 583.773438 570.050781 578.945312 574.878906 572.84375 574.878906 L 467.386719 574.878906 C 461.285156 574.878906 456.457031 570.050781 456.457031 563.949219 Z M 649.96875 600.925781 C 649.96875 606.898438 645.140625 611.851562 639.042969 611.851562 L 467.386719 611.851562 C 461.414062 611.851562 456.457031 607.023438 456.457031 600.925781 C 456.457031 594.953125 461.285156 589.996094 467.386719 589.996094 L 639.167969 589.996094 C 645.140625 590.125 649.96875 594.953125 649.96875 600.925781 Z M 649.96875 638.535156 C 649.96875 644.507812 645.140625 649.460938 639.042969 649.460938 L 467.386719 649.460938 C 461.414062 649.460938 456.457031 644.632812 456.457031 638.535156 C 456.457031 632.5625 461.285156 627.605469 467.386719 627.605469 L 639.167969 627.605469 C 645.140625 627.605469 649.96875 632.433594 649.96875 638.535156 Z M 649.96875 638.535156 " fill-opacity="1" fill-rule="nonzero"/></g></svg>