<svg xmlns="http://www.w3.org/2000/svg" xmlns:xlink="http://www.w3.org/1999/xlink" width="1080" zoomAndPan="magnify" viewBox="0 0 810 809.999993" height="1080" preserveAspectRatio="xMidYMid meet" version="1.0"><defs><clipPath id="779ea39fbb"><path d="M 132.855469 132.855469 L 677.355469 132.855469 L 677.355469 677.355469 L 132.855469 677.355469 Z M 132.855469 132.855469 " clip-rule="nonzero"/></clipPath></defs><g clip-path="url(#779ea39fbb)"><path fill="#b84c65" d="M 405.105469 132.855469 C 254.984375 132.855469 132.855469 254.984375 132.855469 405.105469 C 132.855469 555.222656 254.984375 677.355469 405.105469 677.355469 C 555.222656 677.355469 677.355469 555.222656 677.355469 405.105469 C 677.355469 254.984375 555.222656 132.855469 405.105469 132.855469 Z M 577.363281 566.105469 C 541.851562 505.441406 476.742188 467.433594 405.097656 467.433594 C 333.460938 467.433594 268.363281 505.441406 232.847656 566.109375 C 193.386719 523.914062 169.15625 467.300781 169.15625 405.105469 C 169.15625 275 275 169.15625 405.105469 169.15625 C 535.207031 169.15625 641.054688 275 641.054688 405.105469 C 641.054688 467.300781 616.824219 523.914062 577.363281 566.105469 Z M 577.363281 566.105469 " fill-opacity="1" fill-rule="nonzero"/></g><path fill="#b84c65" d="M 405.105469 213.335938 C 343.914062 213.335938 294.121094 263.121094 294.121094 324.320312 C 294.121094 385.515625 343.914062 435.304688 405.105469 435.304688 C 466.300781 435.304688 516.09375 385.515625 516.09375 324.320312 C 516.09375 263.121094 466.300781 213.335938 405.105469 213.335938 Z M 405.105469 213.335938 " fill-opacity="1" fill-rule="nonzero"/></svg>