<svg xmlns="http://www.w3.org/2000/svg" xmlns:xlink="http://www.w3.org/1999/xlink" width="1080" zoomAndPan="magnify" viewBox="0 0 810 809.999993" height="1080" preserveAspectRatio="xMidYMid meet" version="1.0"><defs><clipPath id="b2635e6c17"><path d="M 135.015625 135.015625 L 675.015625 135.015625 L 675.015625 675.015625 L 135.015625 675.015625 Z M 135.015625 135.015625 " clip-rule="nonzero"/></clipPath></defs><path fill="#b84c65" d="M 441.128906 397.929688 C 439.546875 397.464844 437.9375 397.113281 436.304688 396.871094 C 434.675781 396.632812 433.03125 396.507812 431.382812 396.496094 C 429.734375 396.484375 428.089844 396.589844 426.457031 396.808594 C 424.820312 397.03125 423.207031 397.363281 421.621094 397.808594 C 420.03125 398.253906 418.480469 398.808594 416.96875 399.46875 C 415.457031 400.132812 414 400.894531 412.597656 401.761719 C 411.191406 402.628906 409.855469 403.589844 408.585938 404.644531 C 407.316406 405.695312 406.128906 406.835938 405.015625 408.054688 C 403.90625 406.835938 402.714844 405.695312 401.445312 404.644531 C 400.175781 403.589844 398.839844 402.628906 397.4375 401.761719 C 396.03125 400.894531 394.574219 400.132812 393.0625 399.46875 C 391.554688 398.808594 390.003906 398.253906 388.414062 397.808594 C 386.824219 397.363281 385.214844 397.03125 383.578125 396.808594 C 381.945312 396.589844 380.300781 396.484375 378.652344 396.496094 C 377 396.507812 375.359375 396.632812 373.726562 396.871094 C 372.09375 397.113281 370.488281 397.464844 368.90625 397.929688 C 332.792969 412.273438 336.503906 458.59375 393.625 493.1875 C 394.480469 493.714844 395.363281 494.179688 396.28125 494.582031 C 397.195312 494.984375 398.136719 495.320312 399.097656 495.59375 C 400.0625 495.867188 401.039062 496.070312 402.03125 496.210938 C 403.019531 496.347656 404.015625 496.417969 405.015625 496.417969 C 406.019531 496.417969 407.015625 496.347656 408.003906 496.210938 C 408.996094 496.070312 409.972656 495.867188 410.9375 495.59375 C 411.898438 495.320312 412.839844 494.984375 413.753906 494.582031 C 414.671875 494.179688 415.554688 493.714844 416.40625 493.1875 C 473.53125 458.59375 477.242188 412.273438 441.128906 397.929688 Z M 410.078125 482.980469 C 409.320312 483.457031 408.511719 483.816406 407.652344 484.0625 C 406.789062 484.3125 405.914062 484.433594 405.015625 484.433594 C 404.121094 484.433594 403.242188 484.3125 402.382812 484.0625 C 401.523438 483.816406 400.714844 483.457031 399.953125 482.980469 C 358.949219 457.667969 356.839844 435.644531 357.9375 427.375 C 358.070312 426.101562 358.320312 424.851562 358.683594 423.625 C 359.050781 422.394531 359.523438 421.210938 360.101562 420.070312 C 360.683594 418.929688 361.363281 417.847656 362.140625 416.832031 C 362.917969 415.8125 363.78125 414.875 364.726562 414.011719 C 365.675781 413.152344 366.695312 412.386719 367.785156 411.710938 C 368.875 411.039062 370.015625 410.46875 371.207031 410 C 372.402344 409.535156 373.625 409.183594 374.882812 408.941406 C 376.140625 408.699219 377.410156 408.570312 378.691406 408.5625 C 380.511719 408.621094 382.304688 408.871094 384.074219 409.3125 C 385.839844 409.75 387.542969 410.371094 389.175781 411.167969 C 390.8125 411.96875 392.347656 412.933594 393.78125 414.054688 C 395.210938 415.179688 396.511719 416.441406 397.675781 417.84375 C 398.160156 418.324219 398.683594 418.753906 399.25 419.132812 C 399.816406 419.511719 400.414062 419.828125 401.042969 420.089844 C 401.675781 420.351562 402.324219 420.546875 402.992188 420.679688 C 403.660156 420.8125 404.335938 420.878906 405.015625 420.878906 C 405.699219 420.878906 406.375 420.8125 407.042969 420.679688 C 407.710938 420.546875 408.359375 420.351562 408.988281 420.089844 C 409.617188 419.828125 410.21875 419.511719 410.785156 419.132812 C 411.351562 418.753906 411.875 418.324219 412.359375 417.84375 C 413.082031 416.921875 413.867188 416.058594 414.71875 415.25 C 415.566406 414.445312 416.472656 413.703125 417.429688 413.03125 C 418.386719 412.355469 419.390625 411.753906 420.4375 411.226562 C 421.480469 410.699219 422.5625 410.253906 423.671875 409.882812 C 424.785156 409.511719 425.917969 409.226562 427.070312 409.023438 C 428.226562 408.820312 429.386719 408.703125 430.558594 408.667969 C 431.730469 408.636719 432.894531 408.6875 434.058594 408.824219 C 435.222656 408.960938 436.371094 409.183594 437.5 409.488281 C 463.320312 420.203125 456.65625 454.628906 410.078125 482.980469 Z M 410.078125 482.980469 " fill-opacity="1" fill-rule="nonzero"/><path fill="#b84c65" d="M 354.730469 351.609375 L 354.730469 298.453125 C 357.9375 231.121094 453.027344 232.132812 455.304688 300.140625 L 455.304688 318.953125 L 366.796875 318.953125 L 366.796875 351.609375 C 366.789062 352 366.742188 352.386719 366.660156 352.769531 C 366.578125 353.152344 366.457031 353.523438 366.304688 353.882812 C 366.148438 354.242188 365.960938 354.582031 365.738281 354.902344 C 365.519531 355.226562 365.265625 355.527344 364.988281 355.800781 C 364.707031 356.074219 364.40625 356.316406 364.078125 356.53125 C 363.75 356.75 363.40625 356.929688 363.042969 357.078125 C 362.683594 357.226562 362.308594 357.335938 361.925781 357.414062 C 361.542969 357.488281 361.152344 357.527344 360.761719 357.527344 C 360.371094 357.527344 359.984375 357.488281 359.597656 357.414062 C 359.214844 357.335938 358.84375 357.226562 358.480469 357.078125 C 358.117188 356.929688 357.773438 356.75 357.445312 356.53125 C 357.121094 356.316406 356.816406 356.074219 356.535156 355.800781 C 356.257812 355.527344 356.007812 355.226562 355.785156 354.902344 C 355.566406 354.582031 355.375 354.242188 355.222656 353.882812 C 355.066406 353.523438 354.949219 353.152344 354.863281 352.769531 C 354.78125 352.386719 354.738281 352 354.730469 351.609375 Z M 354.730469 351.609375 " fill-opacity="1" fill-rule="nonzero"/><g clip-path="url(#b2635e6c17)"><path fill="#b84c65" d="M 405.015625 135.015625 C 400.597656 135.015625 396.183594 135.125 391.769531 135.34375 C 387.355469 135.558594 382.949219 135.882812 378.550781 136.316406 C 374.15625 136.75 369.769531 137.292969 365.398438 137.9375 C 361.027344 138.585938 356.675781 139.34375 352.34375 140.203125 C 348.007812 141.066406 343.699219 142.035156 339.414062 143.109375 C 335.125 144.183594 330.867188 145.359375 326.640625 146.644531 C 322.410156 147.925781 318.21875 149.3125 314.058594 150.800781 C 309.894531 152.289062 305.773438 153.878906 301.691406 155.570312 C 297.609375 157.261719 293.570312 159.050781 289.578125 160.941406 C 285.582031 162.828125 281.636719 164.816406 277.738281 166.898438 C 273.84375 168.980469 270 171.160156 266.210938 173.429688 C 262.417969 175.703125 258.6875 178.066406 255.011719 180.519531 C 251.339844 182.976562 247.726562 185.519531 244.179688 188.152344 C 240.628906 190.785156 237.148438 193.5 233.730469 196.304688 C 230.316406 199.109375 226.96875 201.992188 223.695312 204.960938 C 220.421875 207.925781 217.222656 210.972656 214.097656 214.097656 C 210.972656 217.222656 207.925781 220.421875 204.960938 223.695312 C 201.992188 226.96875 199.109375 230.316406 196.304688 233.730469 C 193.5 237.148438 190.785156 240.628906 188.152344 244.179688 C 185.519531 247.726562 182.976562 251.339844 180.519531 255.011719 C 178.066406 258.6875 175.703125 262.417969 173.429688 266.210938 C 171.160156 270 168.980469 273.84375 166.898438 277.738281 C 164.816406 281.636719 162.828125 285.582031 160.941406 289.578125 C 159.050781 293.570312 157.261719 297.609375 155.570312 301.691406 C 153.878906 305.773438 152.289062 309.894531 150.800781 314.058594 C 149.3125 318.21875 147.925781 322.410156 146.644531 326.640625 C 145.359375 330.867188 144.183594 335.125 143.109375 339.414062 C 142.035156 343.699219 141.066406 348.007812 140.203125 352.34375 C 139.34375 356.675781 138.585938 361.027344 137.9375 365.398438 C 137.292969 369.769531 136.75 374.15625 136.316406 378.550781 C 135.882812 382.949219 135.558594 387.355469 135.34375 391.769531 C 135.125 396.183594 135.015625 400.597656 135.015625 405.015625 C 135.015625 409.4375 135.125 413.851562 135.34375 418.265625 C 135.558594 422.679688 135.882812 427.085938 136.316406 431.480469 C 136.75 435.878906 137.292969 440.261719 137.9375 444.632812 C 138.585938 449.003906 139.34375 453.359375 140.203125 457.691406 C 141.066406 462.023438 142.035156 466.335938 143.109375 470.621094 C 144.183594 474.90625 145.359375 479.164062 146.644531 483.394531 C 147.925781 487.621094 149.3125 491.816406 150.800781 495.976562 C 152.289062 500.136719 153.878906 504.257812 155.570312 508.339844 C 157.261719 512.425781 159.050781 516.460938 160.941406 520.457031 C 162.828125 524.453125 164.816406 528.398438 166.898438 532.292969 C 168.980469 536.191406 171.160156 540.035156 173.429688 543.824219 C 175.703125 547.613281 178.066406 551.347656 180.519531 555.019531 C 182.976562 558.695312 185.519531 562.308594 188.152344 565.855469 C 190.785156 569.40625 193.5 572.886719 196.304688 576.304688 C 199.109375 579.71875 201.992188 583.0625 204.960938 586.339844 C 207.925781 589.613281 210.972656 592.8125 214.097656 595.9375 C 217.222656 599.058594 220.421875 602.105469 223.695312 605.074219 C 226.96875 608.042969 230.316406 610.925781 233.730469 613.730469 C 237.148438 616.53125 240.628906 619.25 244.179688 621.882812 C 247.726562 624.515625 251.339844 627.058594 255.011719 629.515625 C 258.6875 631.96875 262.417969 634.332031 266.210938 636.605469 C 270 638.875 273.84375 641.054688 277.738281 643.136719 C 281.636719 645.21875 285.582031 647.203125 289.578125 649.09375 C 293.570312 650.984375 297.609375 652.773438 301.691406 654.464844 C 305.773438 656.15625 309.894531 657.746094 314.058594 659.234375 C 318.21875 660.722656 322.410156 662.109375 326.640625 663.390625 C 330.867188 664.671875 335.125 665.851562 339.414062 666.925781 C 343.699219 668 348.007812 668.96875 352.34375 669.828125 C 356.675781 670.691406 361.027344 671.445312 365.398438 672.09375 C 369.769531 672.742188 374.15625 673.285156 378.550781 673.71875 C 382.949219 674.148438 387.355469 674.476562 391.769531 674.691406 C 396.183594 674.910156 400.597656 675.015625 405.015625 675.015625 C 409.4375 675.015625 413.851562 674.910156 418.265625 674.691406 C 422.679688 674.476562 427.085938 674.148438 431.480469 673.71875 C 435.878906 673.285156 440.261719 672.742188 444.632812 672.09375 C 449.003906 671.445312 453.359375 670.691406 457.691406 669.828125 C 462.023438 668.96875 466.335938 668 470.621094 666.925781 C 474.90625 665.851562 479.164062 664.671875 483.394531 663.390625 C 487.621094 662.109375 491.816406 660.722656 495.976562 659.234375 C 500.136719 657.746094 504.257812 656.15625 508.339844 654.464844 C 512.425781 652.773438 516.460938 650.984375 520.457031 649.09375 C 524.453125 647.203125 528.398438 645.21875 532.292969 643.136719 C 536.191406 641.054688 540.035156 638.875 543.824219 636.605469 C 547.613281 634.332031 551.347656 631.96875 555.019531 629.515625 C 558.695312 627.058594 562.308594 624.515625 565.855469 621.882812 C 569.40625 619.25 572.886719 616.53125 576.304688 613.730469 C 579.71875 610.925781 583.0625 608.042969 586.339844 605.074219 C 589.613281 602.105469 592.8125 599.058594 595.9375 595.9375 C 599.058594 592.8125 602.105469 589.613281 605.074219 586.339844 C 608.042969 583.0625 610.925781 579.71875 613.730469 576.304688 C 616.53125 572.886719 619.25 569.40625 621.882812 565.855469 C 624.515625 562.308594 627.058594 558.695312 629.515625 555.019531 C 631.96875 551.347656 634.332031 547.613281 636.605469 543.824219 C 638.875 540.035156 641.054688 536.191406 643.136719 532.292969 C 645.21875 528.398438 647.203125 524.453125 649.09375 520.457031 C 650.984375 516.460938 652.773438 512.425781 654.464844 508.339844 C 656.15625 504.257812 657.746094 500.136719 659.234375 495.976562 C 660.722656 491.816406 662.109375 487.621094 663.390625 483.394531 C 664.671875 479.164062 665.851562 474.90625 666.925781 470.621094 C 668 466.335938 668.96875 462.023438 669.828125 457.691406 C 670.691406 453.359375 671.445312 449.003906 672.09375 444.632812 C 672.742188 440.261719 673.285156 435.878906 673.71875 431.480469 C 674.148438 427.085938 674.476562 422.679688 674.691406 418.265625 C 674.910156 413.851562 675.015625 409.4375 675.015625 405.015625 C 675.015625 400.597656 674.90625 396.183594 674.691406 391.769531 C 674.472656 387.355469 674.148438 382.949219 673.714844 378.554688 C 673.28125 374.15625 672.738281 369.773438 672.089844 365.402344 C 671.441406 361.03125 670.6875 356.679688 669.824219 352.34375 C 668.960938 348.011719 667.992188 343.703125 666.917969 339.414062 C 665.84375 335.128906 664.667969 330.871094 663.382812 326.644531 C 662.101562 322.414062 660.714844 318.222656 659.226562 314.0625 C 657.738281 309.902344 656.148438 305.78125 654.457031 301.699219 C 652.765625 297.617188 650.972656 293.578125 649.085938 289.582031 C 647.195312 285.589844 645.207031 281.644531 643.125 277.746094 C 641.042969 273.851562 638.867188 270.007812 636.59375 266.214844 C 634.320312 262.425781 631.957031 258.695312 629.503906 255.019531 C 627.046875 251.347656 624.503906 247.734375 621.871094 244.1875 C 619.242188 240.636719 616.523438 237.15625 613.71875 233.738281 C 610.917969 230.324219 608.03125 226.980469 605.0625 223.707031 C 602.097656 220.433594 599.050781 217.234375 595.925781 214.109375 C 592.800781 210.984375 589.601562 207.9375 586.328125 204.96875 C 583.054688 202.003906 579.710938 199.117188 576.292969 196.316406 C 572.878906 193.511719 569.394531 190.792969 565.847656 188.160156 C 562.296875 185.527344 558.6875 182.984375 555.011719 180.53125 C 551.339844 178.074219 547.605469 175.710938 543.816406 173.441406 C 540.027344 171.167969 536.183594 168.992188 532.289062 166.910156 C 528.390625 164.824219 524.445312 162.839844 520.449219 160.949219 C 516.457031 159.058594 512.417969 157.269531 508.335938 155.578125 C 504.253906 153.886719 500.132812 152.296875 495.972656 150.808594 C 491.8125 149.320312 487.617188 147.933594 483.390625 146.652344 C 479.160156 145.367188 474.90625 144.1875 470.617188 143.117188 C 466.332031 142.042969 462.023438 141.074219 457.6875 140.210938 C 453.355469 139.347656 449.003906 138.59375 444.632812 137.945312 C 440.261719 137.296875 435.878906 136.753906 431.480469 136.320312 C 427.082031 135.886719 422.679688 135.5625 418.265625 135.34375 C 413.851562 135.125 409.4375 135.019531 405.015625 135.015625 Z M 485.171875 574.019531 L 324.859375 574.019531 C 295.160156 573.9375 277.105469 543.898438 280.902344 515.042969 L 298.28125 359.117188 C 298.4375 357.769531 298.652344 356.433594 298.929688 355.105469 C 299.207031 353.777344 299.539062 352.464844 299.933594 351.167969 C 300.324219 349.871094 300.777344 348.59375 301.285156 347.335938 C 301.792969 346.082031 302.355469 344.847656 302.972656 343.640625 C 303.589844 342.4375 304.261719 341.257812 304.984375 340.113281 C 305.707031 338.964844 306.480469 337.855469 307.304688 336.777344 C 308.125 335.699219 308.996094 334.660156 309.910156 333.664062 C 310.828125 332.664062 311.785156 331.707031 312.789062 330.792969 C 313.789062 329.878906 314.832031 329.011719 315.910156 328.191406 C 316.988281 327.371094 318.101562 326.601562 319.25 325.882812 C 320.398438 325.160156 321.578125 324.496094 322.785156 323.878906 C 323.996094 323.265625 325.226562 322.703125 326.484375 322.199219 C 327.746094 321.695312 329.023438 321.25 330.320312 320.859375 C 331.621094 320.46875 332.933594 320.140625 334.261719 319.867188 C 335.589844 319.59375 336.925781 319.382812 338.273438 319.230469 C 339.621094 319.078125 340.972656 318.984375 342.328125 318.953125 L 342.664062 318.953125 L 342.664062 298.453125 C 346.125 215.765625 463.996094 215.933594 467.371094 298.453125 L 467.371094 318.953125 C 471.476562 318.917969 475.496094 319.480469 479.4375 320.640625 C 481.5625 321.277344 483.632812 322.066406 485.644531 323.003906 C 487.65625 323.941406 489.59375 325.019531 491.449219 326.238281 C 493.304688 327.457031 495.058594 328.804688 496.71875 330.28125 C 498.378906 331.757812 499.921875 333.34375 501.351562 335.042969 C 502.777344 336.746094 504.074219 338.539062 505.242188 340.429688 C 506.410156 342.316406 507.433594 344.28125 508.3125 346.320312 C 509.195312 348.359375 509.921875 350.449219 510.5 352.59375 C 511.074219 354.738281 511.492188 356.910156 511.75 359.117188 L 529.132812 515.042969 C 532.929688 543.898438 514.875 573.9375 485.171875 574.019531 Z M 485.171875 574.019531 " fill-opacity="1" fill-rule="nonzero"/></g></svg>