<svg xmlns="http://www.w3.org/2000/svg" xmlns:xlink="http://www.w3.org/1999/xlink" width="1080" zoomAndPan="magnify" viewBox="0 0 810 809.999993" height="1080" preserveAspectRatio="xMidYMid meet" version="1.0"><defs><clipPath id="8b4292dd21"><path d="M 129.679688 129.679688 L 679.902344 129.679688 L 679.902344 679.902344 L 129.679688 679.902344 Z M 129.679688 129.679688 " clip-rule="nonzero"/></clipPath></defs><path fill="#b84c65" d="M 556.6875 487.359375 L 556.6875 325.351562 L 451.25 413.03125 Z M 556.6875 487.359375 " fill-opacity="1" fill-rule="nonzero"/><path fill="#b84c65" d="M 405.691406 424.589844 C 409.152344 424.589844 412.511719 423.394531 415.191406 421.179688 L 541.847656 315.847656 L 269.535156 315.847656 L 396.1875 421.179688 C 398.871094 423.394531 402.226562 424.589844 405.691406 424.589844 " fill-opacity="1" fill-rule="nonzero"/><path fill="#b84c65" d="M 425.917969 434.09375 C 420.242188 438.804688 413.058594 441.410156 405.691406 441.410156 C 398.324219 441.410156 391.136719 438.804688 385.460938 434.09375 L 373.511719 424.148438 L 272.789062 495.167969 L 538.59375 495.167969 L 437.867188 424.148438 L 425.917969 434.09375 " fill-opacity="1" fill-rule="nonzero"/><path fill="#b84c65" d="M 254.695312 325.351562 L 254.695312 487.359375 L 360.132812 413.03125 Z M 254.695312 325.351562 " fill-opacity="1" fill-rule="nonzero"/><g clip-path="url(#8b4292dd21)"><path fill="#b84c65" d="M 404.777344 647.285156 C 270.859375 647.285156 162.300781 538.722656 162.300781 404.804688 C 162.300781 270.886719 270.859375 162.328125 404.777344 162.328125 C 538.722656 162.328125 647.285156 270.886719 647.285156 404.804688 C 647.285156 538.722656 538.722656 647.285156 404.777344 647.285156 Z M 599.328125 210.28125 C 574.078125 185.027344 544.660156 165.191406 511.882812 151.3125 C 477.960938 136.96875 441.902344 129.707031 404.777344 129.707031 C 367.65625 129.707031 331.625 136.96875 297.703125 151.3125 C 264.925781 165.191406 235.507812 185.027344 210.253906 210.28125 C 185 235.535156 165.164062 264.953125 151.3125 297.703125 C 136.96875 331.648438 129.679688 367.679688 129.679688 404.804688 C 129.679688 441.929688 136.96875 477.960938 151.3125 511.90625 C 165.164062 544.660156 185 574.078125 210.253906 599.328125 C 235.507812 624.582031 264.925781 644.421875 297.703125 658.269531 C 331.625 672.640625 367.65625 679.902344 404.777344 679.902344 C 441.902344 679.902344 477.960938 672.640625 511.882812 658.269531 C 544.660156 644.421875 574.078125 624.582031 599.328125 599.328125 C 624.582031 574.078125 644.421875 544.660156 658.269531 511.90625 C 672.613281 477.960938 679.902344 441.929688 679.902344 404.804688 C 679.902344 367.679688 672.613281 331.648438 658.269531 297.703125 C 644.421875 264.953125 624.582031 235.535156 599.328125 210.28125 " fill-opacity="1" fill-rule="nonzero"/></g></svg>