<?xml version="1.0" encoding="UTF-8"?><svg id="Capa_1" xmlns="http://www.w3.org/2000/svg" viewBox="0 0 120.92 130.59"><defs><style>.cls-1,.cls-2{fill:#f3a8af;}.cls-3{fill:#f9c7ab;}.cls-4{fill:#fad3ae;}.cls-5,.cls-6{fill:#e88d97;}.cls-7{fill:#fff;}.cls-8{fill:#fcdcb7;}.cls-9{fill:#402512;}.cls-10{fill:none;stroke:#402512;stroke-miterlimit:10;stroke-width:1.08px;}.cls-10,.cls-2,.cls-11,.cls-12,.cls-13,.cls-14,.cls-6,.cls-15{fill-rule:evenodd;}.cls-11{fill:#dc7f85;}.cls-12{fill:#f29ea8;}.cls-13{fill:#ef8495;}.cls-14{fill:#f6db84;}.cls-15{fill:#fcd269;}</style></defs><path class="cls-15" d="m66.23,32.9l-.41.05-.62-9.49c.96-1.11,4.21-5.62,1.26-13.03-.38-.93-.92-1.78-1.61-2.51-1.47-1.56-4.24-3.93-5.91-1.92-.91,1.1-.48,2.83.91,3.12.7.15,1.48-.13,2.1-1.51,0,0,1.31,5.79-2.89,4.65-3.35-.92-5.91-4.87-4.15-7.86,1.65-2.81,4.05-7,12.43-2.21,14.46,8.26-1.12,30.72-1.12,30.72Z"/><path class="cls-14" d="m55.07,34.21s12.07-16.1-6.04-18.43c-1.81-.23-3.41,1.25-3.24,3.05,0,.03,0,.06,0,.09,0,0,1.5,2.12,2.1-1.47,0,0,2.3,1.05,1.77,3.48-.51,2.32-3.12,3.51-5.3,2.56-2.79-1.24-6.09-3.87-3.34-9.05,1.14-2.16,3.23-3.64,5.63-4.09,4.74-.89,14.99.56,18.3,13.39,0,0,.1-.09.25-.27l.62,9.49-10.75,1.26Z"/><ellipse class="cls-4" cx="12.27" cy="81.5" rx="12.27" ry="10.78"/><ellipse class="cls-4" cx="108.65" cy="81.5" rx="12.27" ry="10.78"/><circle class="cls-4" cx="60.76" cy="80.6" r="49.99"/><circle class="cls-8" cx="60.46" cy="79.7" r="48.19"/><ellipse class="cls-3" cx="35.62" cy="87.49" rx="7.48" ry="2.99"/><ellipse class="cls-3" cx="84.71" cy="87.49" rx="7.48" ry="2.99"/><path class="cls-11" d="m53.49,114.22c.49-.17.96-.4,1.41-.65,1.37-.75,6.01-2.73,12.6.25,5.7,2.58,8.23-1.57,9.2-4.11.38-.99.58-2.05.61-3.11.11-4.34-.78-17.62-15.72-19.12-17.89-1.8-17.29,19.75-17.29,19.75,0,0,.56,10.02,9.19,6.98Z"/><ellipse class="cls-9" cx="40.11" cy="71.92" rx="4.19" ry="6.58"/><ellipse class="cls-9" cx="80.82" cy="71.92" rx="4.19" ry="6.58"/><circle class="cls-7" cx="38.91" cy="68.93" r="1.2"/><circle class="cls-7" cx="79.62" cy="68.93" r="1.2"/><ellipse class="cls-7" cx="38.91" cy="71.92" rx=".6" ry="1.2"/><ellipse class="cls-7" cx="79.62" cy="71.92" rx=".6" ry="1.2"/><path class="cls-10" d="m35.32,63.24c-.6,1.5,1.8,3.28,1.8,3.28,0,0-1.77.61-3.28-1.19"/><path class="cls-10" d="m33.84,68.28s2.08.62,3.28-1.76"/><path class="cls-10" d="m85.97,63.99c.6,1.5-1.8,3.28-1.8,3.28,0,0,1.77.61,3.28-1.19"/><path class="cls-10" d="m87.46,69.04s-2.08.62-3.28-1.76"/><path class="cls-13" d="m53.82,113.01c.49-.17.96-.39,1.43-.63,1.35-.71,5.69-2.45,11.83.26,4.54,2,6.95-.41,8.14-2.62.78-1.45,1.13-3.09,1.11-4.74-.04-4.57-1.53-15.5-14.83-16.8-16.87-1.65-16.3,18.12-16.3,18.12,0,0,.52,9.16,8.62,6.41Z"/><path class="cls-6" d="m57.17,39.39c-.48,1.06-1.09,2.12-2.03,2.8-1.6,1.17-5.34,3.26-9.04-2.6,0,0-1.96-3.54.22-6.86,0,0-3.81-3.14-.52-8.32,3.29-5.18,9.28-.99,9.28-.99,0,0,7.16,4.87,2.09,15.96Z"/><path class="cls-2" d="m56.85,38.63c-.41.94-.91,1.87-1.7,2.47-1.34,1.03-4.47,2.88-7.56-2.29,0,0-1.64-3.12.18-6.05,0,0-3.19-2.77-.43-7.34,2.75-4.57,7.76-.87,7.76-.87,0,0,5.99,4.3,1.75,14.08Z"/><path class="cls-6" d="m64.6,39.61c.48,1.06,1.09,2.12,2.03,2.8,1.6,1.17,5.34,3.26,9.04-2.6,0,0,1.96-3.54-.22-6.86,0,0,3.81-3.14.52-8.32-3.29-5.18-9.28-.99-9.28-.99,0,0-7.16,4.87-2.09,15.96Z"/><path class="cls-2" d="m65.23,38.63c.39.94.88,1.87,1.65,2.47,1.3,1.03,4.33,2.88,7.34-2.29,0,0,1.59-3.12-.18-6.05,0,0,3.09-2.77.42-7.34s-7.53-.87-7.53-.87c0,0-5.81,4.3-1.7,14.08Z"/><ellipse class="cls-5" cx="60.76" cy="32.71" rx="2.1" ry="3.59"/><ellipse class="cls-1" cx="60.79" cy="32.6" rx="1.17" ry="2.25"/><path class="cls-12" d="m60.52,107.84s-7.65-.38-8.61-7.04c-.97-6.65,3.82-8.02,8.96-5.63"/><path class="cls-12" d="m60.52,107.84s7.97-.53,8.94-7.18c.97-6.65-3.82-8.02-8.96-5.63"/><path class="cls-12" d="m69.14,100.95l-16.5,1.25s-4.66,21.26,7.73,20.66c12.39-.6,9.03-15.31,8.77-21.9Zm-8.69,19.84c-9.59.5-5.98-17.03-5.98-17.03l12.77-1.02c.19,5.44,2.8,17.55-6.79,18.05Z"/></svg>