<?xml version="1.0" encoding="utf-8"?>
<!-- Generator: Adobe Illustrator 26.0.1, SVG Export Plug-In . SVG Version: 6.00 Build 0)  -->
<svg version="1.1" xmlns="http://www.w3.org/2000/svg" xmlns:xlink="http://www.w3.org/1999/xlink" x="0px" y="0px"
	 viewBox="0 0 150 150" style="enable-background:new 0 0 150 150;" xml:space="preserve">
<style type="text/css">
	.st0{fill:#0D0D0D;}
	.st1{fill:#33A67C;}
	.st2{fill:#4B7DBF;}
	.st3{fill:#F288AF;}
	.st4{fill:#F2DFBB;}
	.st5{fill:#F2B705;}
	.st6{fill:#F23A29;}
	.st7{display:none;}
	.st8{display:inline;fill:#EEDFBF;}
	.st9{display:inline;fill:#0D0D0D;}
	.st10{display:inline;fill:#0D0D0D;stroke:#F2DFBB;stroke-width:5.0393;stroke-miterlimit:10;}
	.st11{display:inline;fill:#0D0D0D;stroke:#F2DFBB;stroke-width:0.9657;stroke-miterlimit:10;}
	.st12{display:inline;}
	.st13{fill-rule:evenodd;clip-rule:evenodd;fill:none;}
	.st14{fill:#EA9CA8;}
	.st15{font-family:'Calligraffitti-Regular';}
	.st16{font-size:19.544px;}
	.st17{fill:none;}
	.st18{fill:#DC93A1;}
	.st19{font-family:'MyriadPro-Regular';}
	.st20{font-size:9.772px;}
	.st21{fill-rule:evenodd;clip-rule:evenodd;fill:#FCD269;}
	.st22{fill-rule:evenodd;clip-rule:evenodd;fill:#F6DB84;}
	.st23{fill-rule:evenodd;clip-rule:evenodd;fill:#FAD3AE;}
	.st24{fill-rule:evenodd;clip-rule:evenodd;fill:#FCDCB7;}
	.st25{fill-rule:evenodd;clip-rule:evenodd;fill:#F9C7AB;}
	.st26{fill-rule:evenodd;clip-rule:evenodd;fill:#DC7F85;}
	.st27{fill-rule:evenodd;clip-rule:evenodd;fill:#402512;}
	.st28{fill-rule:evenodd;clip-rule:evenodd;fill:#FFFFFF;}
	.st29{fill-rule:evenodd;clip-rule:evenodd;fill:none;stroke:#402512;stroke-width:0.4387;stroke-miterlimit:10;}
	.st30{fill-rule:evenodd;clip-rule:evenodd;fill:#EF8495;}
	.st31{fill-rule:evenodd;clip-rule:evenodd;fill:#E88D97;}
	.st32{fill-rule:evenodd;clip-rule:evenodd;fill:#F3A8AF;}
	.st33{fill-rule:evenodd;clip-rule:evenodd;fill:#F29EA8;}
</style>
<g id="Web_Banner_02:_468_x__x_60_px">
	<g id="Background">
	</g>
	<g id="Graphic_Elements">
	</g>
	<g id="Text">
	</g>
</g>
<g id="Web_Banner_01:_468_x__x_60_px_2_">
	<g id="Background_1_">
	</g>
	<g id="Graphic_Elements_1_">
	</g>
	<g id="Text_1_">
	</g>
</g>
<g id="Square_02:_250_x__x_250_px">
	<g id="Background_2_">
	</g>
	<g id="Graphic_Elements_2_">
	</g>
	<g id="Text_2_">
	</g>
</g>
<g id="Square_01:_250_x__x_250_px">
	<g id="Background_3_" class="st7">
		<rect x="-50" y="-50" class="st8" width="250" height="250"/>
	</g>
	<g id="Graphic_Elements_3_" class="st7">
		<path class="st9" d="M87.3,153.6c-0.8-1.6-3.6-0.5-3,1.3c4,11.6,3.2,23.9,1.3,35.9c-0.5,3.1-1.1,6.2-1.7,9.3h10.6
			c0.4-3.9,0.6-7.8,0.6-11.7C95.3,176.3,92.7,164.3,87.3,153.6z M167.1,93.5c0.1,8.7,1.8,18.2,6.6,25.7c4.9,7.6,12.2,12.9,20.4,16.6
			c1.9,0.9,3.9,1.6,5.9,2.4v-17.6c-4.2-3.7-7.7-8-9.5-13.8c-4.4-14.2-0.5-29.2,1.6-43.5c2.5-17.1,2.6-35-7.8-49.7
			c-8.7-12.2-22.3-19.8-36.8-23c-17.5-3.9-34.7-1.4-51.9,2.7c-9,2.2-17.9,4.6-26.9,6.3C63,0.7,54.4,3.2,49.2-0.3
			c-1.2-0.8-2.4-2.3-3.3-4c-1.2-2.4-1.8-5.5-2.3-8.3c-1.3-6.4-1.8-13-3.9-19.1C36.9-40,31.6-46,24.9-50h-39.6
			c6,9.8,7.2,22.5,5.1,33.7c-3.4,18.1-13.7,34.2-22.4,50.1c-5.2,9.4-11.2,19-16,29c0.5-6.6,2-13.3,4.6-19.4
			c5.1-12.1,13-22.8,19.1-34.4c9.4-18.2,14.3-40.2,6.8-59h-6.6c2.8,9,2.8,18.7-1.5,27.6C-30.9-11.1-40.1-2.6-47.8,7
			c-0.8,1-1.5,1.9-2.2,2.9v75.6c0.4-2.7,1.1-5.3,1.9-7.9c2.8-8.7,7.3-16.6,11.6-24.6c4.8-8.7,9.5-17.4,14.2-26.1
			c8.6-15.8,18-32.5,18.7-51c0.3-8.8-1.7-17.7-6-25.1c1.8,2,3.4,4.2,4.6,6.6C3-27.8-2.5-8.7-8.7,5.7C-21.1,34.8-45.3,66.5-34.1,100
			c7.2,21.4,25.6,30.8,45.8,33.8c-4.9,1.6-9.8,2.9-15,3.5c-14.4,1.5-28-5.1-37.2-16.2c-5.2-6.2-8.3-13.2-9.5-20.5v17.9
			c0.5,0.9,1,1.8,1.6,2.6c7.2,10.8,18.4,19.2,31.1,22.2c11.2,2.6,22.2,0.7,32.9-2.5c-7.8,3.3-15.3,7.1-23.5,9.4
			c-15.1,4.2-36.2,1.3-40.5-16.6c-0.2-0.9-0.8-1.5-1.6-1.7v13.9c4.5,7.7,12.7,13,21.9,14.7c17.7,3.2,33.8-4.6,49.7-11
			c14.2-5.7,36.3-9,42.4,9.7c2.8,8.4,1.9,17.3-1.1,25.5c-1.9,5.2-4.3,10.2-5.4,15.4h17c-0.1-2.2,0.3-4.5,0.6-6.6
			c1.2-7.7,2.6-14.9,1.6-22.7c-0.9-7.3-3.4-14.3-7.1-20.7c-6.4-11.1-18-15.8-30.2-15.4c0.6,0,1.3-0.1,1.9-0.1
			c12.9-1.1,25.7-3.1,38.6-4.1c10.5,3.3,20,9.4,27.5,17.6c-1.3,0-2.5,0.8-2.8,2.5c-2.9,17.6,2.7,34,10.2,49.6h7.9
			c-5-15.3-9.2-30.8-10.9-46.7c3.2,4.5,5.9,9.4,7.6,14.7c2.6,7.9,2.4,16.6,5.7,24.2c1.4,3.1,3.2,5.7,5.5,7.8h20.5
			c-2.1-0.8-4.2-1.7-6.2-2.7c-6.5-3.4-9.5-8.8-10.7-15.9c-2.4-14.2-7-26.6-16.7-37.6c-4.9-5.6-10.5-10.3-16.7-14.2
			c13.6,0.4,28.1,3,38.2,12.1c2.9,2.6,5.4,5.7,6.9,9.2c1.6,3.8,1.4,7.7,1.6,11.7c0.6,9.4,1.8,18.8,9.2,25.5c2.6,2.4,5.5,4.2,8.6,5.5
			c-1.7-0.5-3.4-1-5.1-1.8c-9.6-4.1-16.7-12.1-18.9-22.4c-2-9.6-2-19.4-8.6-27.3c-1-1.2-3,0.4-2.2,1.7c5.6,9.5,2.2,21.5,5.2,31.9
			c2.6,9.1,9,16.7,16.8,21.8c1.3,0.9,2.7,1.7,4.1,2.3h40.7c0.8-0.4,1.7-0.7,2.5-1.1v-5.6c-0.8,0.1-1.5,0.2-2.2,0.3
			c-2.7,0.5-5.5,0.9-8.3,1.2c3.7-1.1,7.3-2.6,10.6-4.6v-13.5c-11.4,2.1-29.1,6.3-33.1-7.7c-2.2-7.7-1.8-15.3-5.8-22.5
			c-3.7-6.6-9.8-11.9-16.2-15.8c-22.5-13.7-47.7-13.6-72.8-11.5c-9.4-1.2-19-0.6-28.5,2.2c-0.6,0.2-1.2,0.4-1.8,0.6
			c-12.8,0.9-26.1,0.9-38-4c-13.2-5.4-21.3-16.5-22.8-30.6C-22.4,53,7.4,26.6,11.6-6.4c1.9-15-0.3-31.5-10.1-43.2
			c10.9,0.9,23.7,4,26.2,14.5c3,12.5-2.3,25.5,0.6,38.1c4.2,18.1,23.1,22.5,39.2,20.3c17.7-2.4,34.8-7.9,52.3-10.8
			c12.5-2.1,25.5-1.9,36.7,3.8c4.8,2.4,9.1,5.6,12.2,10.1c4.2,6.2,4.6,14,4.2,21.3C172.1,63.1,167,78,167.1,93.5z M32.4,134.9
			c1.3,0,2.6-0.1,3.9-0.2c-0.2,0-0.3,0-0.5,0c-2,0.2-4,0.6-5.9,1C30.7,135.5,31.5,135.2,32.4,134.9z M-29.1-50h-3.7
			c0.3,2.3,0.4,4.5,0.2,6.8c-0.6,6.5-4.3,9.8-10.1,12.3c-2.5,1.1-5,2.3-7.4,3.7v22.5c1.4-1.9,2.8-3.7,4.2-5.5
			c5.5-7,12.1-13.5,14.9-22.1C-28.8-38.6-28.4-44.2-29.1-50z M-42.9-50c-0.3,0.6-0.7,1.2-1.1,1.7c-1.7,2.4-3.8,4.5-6,6.4v6
			c5.3-2.8,10.1-6,13.4-11.3c0.6-0.9,1.1-1.9,1.5-2.9H-42.9z"/>
		<path class="st9" d="M200,23.6v23.6c-0.4-5.3-1.1-10.6-2.3-15.9c-5.2-23.1-19.9-43.5-44.7-47c-23.4-3.3-47.4,0.9-71-1.2
			c-10.7-1-21.5-3.5-30.4-9.9c-8-5.8-13-14.1-16.1-23.3h18c3.4,5,7.9,9.2,13.7,11.7c9.2,4,20,4.4,29.9,4.9
			c24.3,1.3,48.4,7.4,70.7,17.4C184.2-8.7,195.1,6.7,200,23.6z"/>
		<path class="st9" d="M200-6.9V6.9c-5.2-12-12.8-23.4-24.4-29.7c-15.6-8.5-35-7.4-51.9-11.4C111.6-37,99.3-42.3,89.2-50H117
			c2.2,0.8,4.5,1.5,6.8,2.1c8.7,2.3,17.8,3.4,26.6,5.3c14.8,3.3,27.5,11.3,38.4,21.8C193-16.7,196.9-12,200-6.9z"/>
		<path class="st9" d="M162.4,104.7c-2.1-5.8-4.8-11.2-8.6-16.1c-1.3-1.6-3.3,0.4-2.6,2c2.8,6.4,5.9,12.7,7.7,19.5
			c0.8,2.9,2.3,7,0.6,9.8c-2.2,3.5-6.1,0.8-8.7-1.2c-1.2-2.1-7.6-1.2-4.9,2.4c2.9,3.8,6.6,7.6,11.7,7.5c4.4-0.1,7.8-3.4,8.2-7.7
			C166.4,115.7,164.2,109.5,162.4,104.7z"/>
		
			<ellipse transform="matrix(0.2298 -0.9732 0.9732 0.2298 -15.2253 130.7622)" class="st10" cx="75" cy="75" rx="100.1" ry="100.1"/>
		<circle class="st11" cx="75" cy="75" r="91"/>
	</g>
	<g id="Text_3_" class="st7">
		<g class="st12">
			<g>
				<path class="st5" d="M39.1,122.1c0.4,0.3,1.5,1.3,2,1.2c0.7-0.1,0.4-1.9,0.3-2.6c-0.2-1.1-0.5-2.9-0.8-3.8
					c-0.6-1.7-2-0.3-2.3-2.5c-0.4-2.6,2.4-4.3,3.4-5.1c1.1-0.8,4.6-3.3,5,0.4c0.4,3.1-1.4,2.7-1.6,5.3c-0.2,2,0.3,5,0.5,6.8
					c0.7,5,1.1,7.5,1.8,12.2c0.3,2.1,1.5,8.3-0.3,7.5c-0.6-0.2-1.1-0.9-1.6-1.6c-4.3-5.8-6.1-8.1-11.1-11.8
					c-0.6-0.4-1.6-1.2-2.4-1.3c-1-0.1-0.4,1.5-0.1,2.1c0.3,0.7,0.8,1.7,1.3,2.4c1.2,1.8,2.4,1.8,2.9,3.1c0.7,1.8-1.8,0.3-3-0.6
					c-1.1-0.8-3.7-2.8-5-4c-1.1-1,0.9,0.4,0-0.8c-0.6-0.8-1.6-2.1-2.3-3.1c-1.2-1.6-2.3-3.2-3.8-5c-2.1-2.4-4.2-1.9-5.2-3.2
					c-1.2-1.6,4.9-1.2,7.1-1.4c3.1-0.3,3.6-0.4,5.7,0.4C34.2,118.6,35.8,119.4,39.1,122.1z"/>
				<path class="st3" d="M56,124.4c0.9-3.9,2.6-9,2.4-13.7c-0.2-4.2,1.6-7.5,4.9-6.5c3.2,1,4.7,7.5,6,11.9c2,7.9,3.9,16,6.2,23.8
					c1,3.7,2.7,1.6,2.7,4.2c0,3.2-4.5,3.1-6.1,3.1c-4.5-0.2-7.1-0.7-7.1-4c0-2.6,1.9-1.3,2-3.2c0-2.4-0.5-2.9-6-3.9
					c-1.8-0.3-2.9-0.3-2.7,2.4c0.1,2.2,2.2,1.1,2.2,4c0.1,3.3-3.2,2.6-4.3,2.3c-4.2-1.1-4.7-2.7-5-4.2c-0.3-2.3,1.3-1.2,2-3
					c0.5-1.3,0.9-3.8,1.2-5.5C54.9,129,55.2,127.5,56,124.4z M64,129.6c0.3,0.1,1.3,0.4,1.3-0.4s-0.9-4.1-1.2-5
					c-0.3-1-0.9-3.3-1.7-3.5c-0.9-0.2-1.5,3.2-1.6,3.8c-0.1,0.6-0.7,2.8-0.7,3.5c0,1,0.9,1,1.3,1C62.5,129.3,63,129.4,64,129.6z"/>
				<path class="st4" d="M87.7,134.9c-0.2-0.5-0.6-1.8-1.2-1.8c-1.2-0.1-1,5.4-1,6.7c-0.2,4.3,2,2.1,1.8,4.1
					c-0.2,2.1-3.5,2.7-4.7,2.8c-1.1,0.1-3.9,0.2-3.9-2.1c0-2.5,1.9-0.4,2.2-3.9c0.3-3.6,0.6-7.5,0.4-14.2c-0.1-2.8-0.3-4.3-0.7-5.5
					c-0.4-1.1-2.3-2.2-2.4-4.3c-0.1-2.8,2.8-2,6.1-1.1c4.8,1.3,5.2,1.9,6.7,4.2c1.7,2.6,3.9,9.2,5.6,9.3c1.2,0.1,3.8-5.2,5.7-8.4
					c2.7-4.6,3.3-5.8,7.4-8.1c1.3-0.8,4-2.4,3.5,0.5c-0.3,1.8-1.6,3-2.2,4.6c-0.5,1.4-1.9,6.6-2.4,8.5c-0.2,0.6-1.3,5.1-2.5,8.7
					c-0.9,2.8,1,1.4,0.3,3.1c-1,2.6-4.8,4-6,4.5c-1.2,0.4-5.2,1.8-4.4-0.4c0.4-1.3,1.9-1.9,2.5-3.1c0.3-0.7,3-7.4,1.8-7.1
					c-1.1,0.3-3.1,4-4.4,6.1c-1.2,1.9-3.4,6.2-4.4,6.3c-0.5,0-0.4,0.4-1.9-4.5C88.8,138,88.4,137,87.7,134.9z"/>
				<path class="st1" d="M128.6,104c6.7-0.3,7.3-0.3,7.8-0.1c2.1,0.6,1,4.8,0.2,6.4c-0.6,1.2-1.8,2.5-3,2.4c-2.5-0.3,2.1-5-6.6-4.1
					c-5.1,0.5-4.2,1.8-5.6,7c-0.7,2.6-0.8,2.6,1.5,2c2.8-0.8,2.4-5.2,5.4-5.5c2.5-0.2,0.4,4.5-0.4,6c-0.8,1.6-3.5,6.2-5.5,6.9
					c-2,0.7,1.8-4.3-1.6-3.1c-1.4,0.5-1.9,2.2-2.4,3.5c-2.2,6.2-2,5.6,1,4c5.9-3,7.5-7.1,9.6-7.7c0.8-0.2,0.3,0.7-0.4,1.5
					c-1.8,2-6.4,6.3-7.3,7c-0.2,0.1-0.5,0.4-0.9,0.6c-0.5,0.3-1.1,0.8-1.9,1.4c-4,2.9-6.1,4.2-10.6,6.5c-1.8,0.9-1.4-0.2-1.2-0.7
					c0.8-2.1,2.1-1.3,3.7-5.7c2.9-7.6,2.7-6.9,4.2-14.9c1.3-6.8-1.6-1.8-1-5c0.5-2.8,2.8-4.1,4-4.9
					C121.4,105.2,122.8,104.3,128.6,104z"/>
			</g>
		</g>
		<g class="st12">
			<g>
				<path class="st2" d="M36.7,22.3c-2,3.1-2.5,4.5-3.3,7.7c-1.1,4.2-1.2,6-1.1,6.8c0.2,1.1,1.8-0.2,1.4,2c-0.6,3.4-5.6,6.4-7.5,7
					c-7.6,2.2-9.7-1.5-9.3-2.7c0.9-2.4,3-1.4,4.4-3.3c0.8-1.1,1.7-3.2,3.3-7.4c1-2.5,0.9-3.2,0.6-4.7c-0.5-1.7-0.5-2.5-0.5-3.7
					c0.1-1.3-1.9,0.2-0.5-1.1c0.6-0.6,1.5-1.9,7.3-6.2c5.1-3.8,4.6-2,4.2-1.1c-0.4,1-1.4,1.9-1.7,2.8c-0.4,0.9-0.2,2.9,0.5,2.6
					c0.8-0.4,2.7-3.3,3.1-4.2c0.4-1.2-0.4-0.8,0.2-2.3c0.9-2.4,4.1-4.1,5.1-4.6c3.5-1.7,4.2-1.4,3.6,0.2c-0.9,2.4-2.5,1.9-4.6,4.8
					C40,17.6,38.9,19.2,36.7,22.3z"/>
				<path class="st3" d="M43.4,21.7c2.7-7.5,8.6-16,16.4-17.7c8-1.8,11.5,8.9,12.1,15.5c0.9,10.6-8.6,13.2-16.7,13.9
					C47.9,34.1,40.3,30.4,43.4,21.7z M57.1,9.7c-2,0.4-3.5,2.8-4,4.7c-0.8,3.3-0.2,12.4,5.3,12.4c3.1,0,4.1-2.1,4.2-4.4
					C62.7,18.4,61.2,9,57.1,9.7z"/>
				<path class="st1" d="M93.4,14.8c-0.5-6-3.2-4.2-3.3-7.4c-0.1-3.4,3.5-2.5,4.7-2.1c1.1,0.3,4.4,1.4,4.8,4.2
					c0.4,2.7-2.1,0.5-1.5,5.3c0.7,5.6,1.1,8.5,1.8,14.4c1.1,8.4-3.7,20-13.4,16.5C78.5,42.8,74.9,31,75.2,22.5
					c-0.1-4.7-0.1-7-0.1-11.5c0.1-3-2-3.2-2-5.3c0-0.6-0.3-3.4,6.3-3c5.2,0.3,6.2,2.3,6.2,4.4c0,3.9-2.3-0.2-2.6,6.5
					c-0.1,4-0.1,6.1-0.1,10.3c0,6.8,1.1,12.2,5.3,13.1c6.3,1.3,6.3-7.2,6.2-7.9C94.1,23.2,93.8,20.3,93.4,14.8z"/>
				<path class="st4" d="M103.8,17.4c-1.2-7-2.9-4.5-3.4-7.5c-0.4-2.6,1.8-2.1,2.9-1.6c0.6,0.2,1.2,0.6,1.8,0.9
					c0.6,0.3,1.2,0.7,1.7,0.9c0.9,0.4,1.8,0.8,2.6,1.2c0.9,0.4,1.7,0.9,2.6,1.3c3,1.7,7.2,5.1,9.5,7.9c1,1.3,0.9,2.2-0.9,2.5
					c-0.3,0.1-0.5,0.1-0.3,0.4c0.2,0.4,0.7,0.6,1.2,0.8c3.1,1.1,5.1,2.4,7.3,5.1c1.9,2.3,3.5,1.4,4.5,2.7c0.6,0.9,0.1,1.2-6,1.6
					c-8.6,0.5-9.1-1.4-11.2-5.6c-0.7-1.5-1.7-2.9-3.4-2.8c-0.7,0.1-0.9,0.2-0.5,2.6c0.2,1.1,0.5,2.6,0.9,3.6
					c0.5,1.7,2.1,0.5,2.5,2.3c0.2,1.3-1,2.6-5.4,5.6c-1.3,0.9-5.4,3.7-5.9-0.1c-0.3-2.7,2.2-2.2,1.4-8.5
					C105.1,25.3,104.7,22.6,103.8,17.4z M110.8,19.8c0.1,0.9,0.1,1.7,1.1,1.8c2,0.1,2.4-1,1.8-2.9c-0.4-1.5-1.3-3.1-2.9-3.7
					c-1-0.4-0.8,0.4-0.6,1.5C110.4,17.8,110.6,18.5,110.8,19.8z"/>
			</g>
		</g>
		<g class="st12">
			<g>
				<path class="st6" d="M25.7,75.4c-0.3,0.6-0.7,1-0.7,1.8c0,0.8,0.4,0.9,0.7,1.1c1.5,0.5,3.6,2.7,3.9,7.6
					c0.3,5.7-0.3,14.8-7.1,15.9c-1.3,0.2-2.9,0.1-4.2,0c-1.3-0.1-2.5-0.3-3.7-0.5c-1.2-0.2-2.4-0.5-3.4-0.8c-1-0.3-2-0.7-2.9-1.3
					c-0.9-0.5-2.2-2.2-2.8-4.2c-1-3.6,1.2,1.3,0-8.5c-0.9-6.8-0.9-10.4-0.2-17.3c1-9-1.8-6-0.9-10c0.5-2.2,1.9-2.7,2.8-2.4
					c1.1,0.4,2.2,0.9,3.3,1.4c1.2,0.4,2.5,0.9,3.9,1.1c0.9,0.1,1.9,0.1,2.8,0.1c0.9,0,2-0.1,3.1-0.1c8.9-0.1,8.5,3.6,8,8.2
					C28,70.1,27.1,73.2,25.7,75.4z M13.4,73.6c-0.1,2.4-0.2,3.6,1.1,3.7c2.6,0.2,3.3-2.5,3.5-5.8c0.2-2.7-0.1-6-2.4-6.2
					c-1.5-0.1-1.6,1.7-1.8,3.4C13.6,70.6,13.5,71.6,13.4,73.6z M13.9,88.5c0.8,7,1.9,7.2,3.3,7.2c2.6,0.1,3-2.4,2.6-5.5
					c-0.5-3.6-1.6-6.8-4.7-6.9c-1.4-0.1-1.6,0.9-1.5,2.1C13.7,86.7,13.7,87.3,13.9,88.5z"/>
				<path class="st5" d="M33.2,68c0.9-9-1.7-4.2-1-7.7c0.6-3.2,3.1-4.6,4.2-5.2c0.6-0.3,1.1-0.6,1.6-0.8c0.4-0.2,1-0.4,1.4-0.8
					c0.8-0.5,1.5-1.2,2.2-1.8c0.7-0.6,1.7-1.4,2.6-2c3-2.1,6.8-0.5,6.6,7.4c-0.1,3.6-1.3,7.3-3.3,9.5c-0.3,0.4-0.6,0.7-0.6,1.4
					c0,0.9,0.5,1,0.9,1.2c2.6,0.9,4,3.6,5.1,10c1,5.5,3.8,2.1,4.2,5.7c0.2,2.2-2.1,4.3-6.7,5c-6.5,1.1-7.2-3.3-8.4-10.6
					c-0.4-2.5-1.1-4.8-2.5-4c-0.6,0.3-0.8,0.7-0.8,4.3c0,1.7,0.2,4,0.4,5.5c0.4,2.5,1.7,0.9,2,3.6c0.2,2-0.7,3.9-4.4,6.5
					c-1.1,0.8-4.8,3.3-5.4-0.9c-0.4-3,1.7-2.2,1.4-9.7C32.4,78.1,32.5,74.7,33.2,68z M39,66.9c-0.2,1.6-0.4,2.9,0.5,2.4
					c1.7-1,2.5-3.6,2.8-7.2c0.2-2.9-0.1-5.4-1.4-4.5c-0.9,0.6-1,1.9-1.3,3.7C39.3,63.6,39.2,64.7,39,66.9z"/>
				<path class="st1" d="M66.9,70.4c0.5-4.1,1.1-9.3,0.6-14.1c-0.4-4.2,0.2-7.1,2.6-6.1c2.3,1,3.9,6.7,5.3,11
					c2.8,9.2,5.9,18.3,8.8,27.4c1.5,4.8,3.1,2.2,3.4,5.6c0.4,4.4-4.2,3.7-5.6,3.2c-3.9-1.3-5.7-2.3-6.1-6c-0.3-2.9,1.2-1.3,0.9-3.4
					c-0.3-2.7-0.5-3.2-4.9-4.6c-1.4-0.5-2.3-0.5-1.9,2.4c0.3,2.4,1.9,1.3,2.4,4.4c0.5,3.6-2.5,2.8-3.7,2.6c-4.5-0.8-5.8-2-6.2-3.9
					c-0.5-2.8,1.7-1.9,2.4-4c0.5-1.6,0.8-4.4,1-6.3C66.3,75.3,66.5,73.7,66.9,70.4z M73.4,76.6c0.2,0.1,1,0.5,0.9-0.5
					c-0.1-0.9-1.2-4.4-1.5-5.3c-0.3-1.1-1.1-3.5-1.7-3.8c-0.7-0.2-0.7,3.3-0.7,4c0,0.6-0.2,2.9-0.1,3.7c0.1,1.1,0.8,1.1,1.1,1.2
					C72.2,76.2,72.7,76.4,73.4,76.6z"/>
				<path class="st6" d="M109.2,70.1c0.4,0.4,1.3,1.6,1.8,1.3c0.7-0.4,0.6-2.8,0.6-3.8c0-1.4-0.2-3.9-0.5-5.1
					c-0.5-2.2-1.9-0.5-2.2-3.6c-0.4-3.6,2.4-5,3.4-5.7c1.1-0.7,3.6-2.8,4.1,1.1c0.4,3.2-1,2.9-1.2,5.8c-0.1,2.3,0,5.8,0.1,8.1
					c0.1,6,0,9.2-0.7,15.2c-0.3,2.6-1.5,10.3-3.1,11.4c-0.5,0.3-0.7-0.1-1-0.6c-1.8-4.3-3.2-6.1-7.5-11.4c-0.5-0.6-1.4-1.8-2.2-1.6
					c-1.2,0.3-1.2,4.2-1.2,5.5c0,1.7,0,3.9,0.2,5.4c0.5,3.7,2.3,1.7,2.1,4.6c-0.3,3.9-3.8,5.3-5.7,5.5c-1.9,0.2-6.4-0.5-6.4-4.3
					c0-3.2,2.5-1.7,2.9-5.5c0.3-2.6,0.3-6.4,0.3-9.2c-0.1-4.4-0.4-8.9-1.2-13.2c-1.2-6-4.1-4.1-4.4-7.6c-0.4-4.2,5.6-3.3,7.7-3.4
					c2.9-0.1,3.4,0,5.4,2C104.6,65,106.2,66.7,109.2,70.1z"/>
				<path class="st2" d="M120.4,58.6c-0.5-6-2.4-1.9-2.9-5.5c-0.4-2.6,1-4,2-4.6c3.6-2.1,5.8-2.8,11.7-2.6
					c10.9,0.6,15.3,16.2,16,24.6c0.8,8.8-3.8,18.9-14,18.2c-1.8-0.1-3.6-0.2-4.9-0.2c-1.4,0-2.6,0.1-3.7,0.3s-2.3,0.5-3.3,0.8
					c-1,0.4-2,0.8-3,1.1c-1.1,0.4-2.2,0.1-1.8-2.2c0.7-4.1,2.7-0.6,3.6-9.2C121,72.6,121,65.3,120.4,58.6z M129.6,78.2
					c-0.2,3.1,0,4.2,2.5,4.2c5.7,0,6.9-7.5,6.9-13.4c0-5.6-2.1-16.7-9-16.8c-1.8,0-1.7,1.1-1.4,3.4
					C129.5,63.4,129.8,70.3,129.6,78.2z"/>
			</g>
		</g>
	</g>
	<g id="Layer_17">
		<rect x="24" y="110.2" class="st13" width="82.5" height="23.7"/>
		<text transform="matrix(1 0 0 1 40.2428 125.2818)" class="st14 st15 st16">Isabelita</text>
		<rect x="52.8" y="133.9" class="st17" width="53.7" height="10.3"/>
		<text transform="matrix(1 0 0 1 80.2726 140.8209)" class="st18 st19 st20">BEBAS</text>
		<path class="st21" d="M75.6,31.7l-0.3,0l-0.4-6.9c0.7-0.8,3.1-4.1,0.9-9.5c-0.3-0.7-0.7-1.3-1.2-1.8c-1.1-1.1-3.1-2.9-4.3-1.4
			C69.7,13,70,14.2,71,14.4c0.5,0.1,1.1-0.1,1.5-1.1c0,0,1,4.2-2.1,3.4c-2.4-0.7-4.3-3.5-3-5.7c1.2-2,2.9-5.1,9-1.6
			C87,15.4,75.6,31.7,75.6,31.7z"/>
		<path class="st22" d="M67.5,32.7c0,0,8.8-11.7-4.4-13.4c-1.3-0.2-2.5,0.9-2.4,2.2c0,0,0,0,0,0.1c0,0,1.1,1.5,1.5-1.1
			c0,0,1.7,0.8,1.3,2.5c-0.4,1.7-2.3,2.6-3.9,1.9c-2-0.9-4.4-2.8-2.4-6.6c0.8-1.6,2.4-2.6,4.1-3c3.4-0.6,10.9,0.4,13.3,9.7
			c0,0,0.1-0.1,0.2-0.2l0.4,6.9L67.5,32.7z"/>
		<ellipse class="st23" cx="36.4" cy="67.1" rx="8.9" ry="7.8"/>
		<ellipse class="st23" cx="106.5" cy="67.1" rx="8.9" ry="7.8"/>
		<circle class="st23" cx="71.6" cy="66.4" r="36.3"/>
		<circle class="st24" cx="71.4" cy="65.8" r="35"/>
		<ellipse class="st25" cx="53.4" cy="71.4" rx="5.4" ry="2.2"/>
		<ellipse class="st25" cx="89.1" cy="71.4" rx="5.4" ry="2.2"/>
		<path class="st26" d="M66.4,90.9c0.4-0.1,0.7-0.3,1-0.5c1-0.5,4.4-2,9.2,0.2c4.1,1.9,6-1.1,6.7-3c0.3-0.7,0.4-1.5,0.4-2.3
			c0.1-3.2-0.6-12.8-11.4-13.9c-13-1.3-12.6,14.4-12.6,14.4S60.1,93.1,66.4,90.9z"/>
		<ellipse class="st27" cx="56.6" cy="60.1" rx="3" ry="4.8"/>
		<ellipse class="st27" cx="86.2" cy="60.1" rx="3" ry="4.8"/>
		<circle class="st28" cx="55.8" cy="57.9" r="0.9"/>
		<circle class="st28" cx="85.4" cy="57.9" r="0.9"/>
		<ellipse class="st28" cx="55.8" cy="60.1" rx="0.4" ry="0.9"/>
		<ellipse class="st28" cx="85.4" cy="60.1" rx="0.4" ry="0.9"/>
		<path class="st29" d="M53.1,53.8c-0.4,1.1,1.3,2.4,1.3,2.4s-1.3,0.4-2.4-0.9"/>
		<path class="st29" d="M52.1,57.5c0,0,1.5,0.5,2.4-1.3"/>
		<path class="st29" d="M90,54.3c0.4,1.1-1.3,2.4-1.3,2.4s1.3,0.4,2.4-0.9"/>
		<path class="st29" d="M91.1,58c0,0-1.5,0.5-2.4-1.3"/>
		<path class="st30" d="M66.6,90c0.4-0.1,0.7-0.3,1-0.5c1-0.5,4.1-1.8,8.6,0.2c3.3,1.5,5.1-0.3,5.9-1.9c0.6-1.1,0.8-2.2,0.8-3.4
			c0-3.3-1.1-11.3-10.8-12.2C59.9,71,60.3,85.3,60.3,85.3S60.7,92,66.6,90z"/>
		<path class="st31" d="M69,36.5c-0.4,0.8-0.8,1.5-1.5,2c-1.2,0.9-3.9,2.4-6.6-1.9c0,0-1.4-2.6,0.2-5c0,0-2.8-2.3-0.4-6
			c2.4-3.8,6.7-0.7,6.7-0.7S72.7,28.4,69,36.5z"/>
		<path class="st32" d="M68.8,35.9c-0.3,0.7-0.7,1.4-1.2,1.8c-1,0.8-3.2,2.1-5.5-1.7c0,0-1.2-2.3,0.1-4.4c0,0-2.3-2-0.3-5.3
			c2-3.3,5.6-0.6,5.6-0.6S71.9,28.8,68.8,35.9z"/>
		<path class="st31" d="M74.4,36.6c0.4,0.8,0.8,1.5,1.5,2c1.2,0.9,3.9,2.4,6.6-1.9c0,0,1.4-2.6-0.2-5c0,0,2.8-2.3,0.4-6
			C80.3,22,76,25,76,25S70.7,28.6,74.4,36.6z"/>
		<path class="st32" d="M74.9,35.9c0.3,0.7,0.6,1.4,1.2,1.8c0.9,0.8,3.2,2.1,5.3-1.7c0,0,1.2-2.3-0.1-4.4c0,0,2.3-2,0.3-5.3
			c-1.9-3.3-5.5-0.6-5.5-0.6S71.9,28.8,74.9,35.9z"/>
		<ellipse class="st31" cx="71.6" cy="31.6" rx="1.5" ry="2.6"/>
		<ellipse class="st32" cx="71.7" cy="31.5" rx="0.8" ry="1.6"/>
		<path class="st33" d="M71.5,86.2c0,0-5.6-0.3-6.3-5.1c-0.7-4.8,2.8-5.8,6.5-4.1"/>
		<path class="st33" d="M71.5,86.2c0,0,5.8-0.4,6.5-5.2s-2.8-5.8-6.5-4.1"/>
		<path class="st33" d="M77.7,81.2l-12,0.9c0,0-3.4,15.5,5.6,15C80.4,96.7,77.9,86,77.7,81.2z M71.4,95.7c-7,0.4-4.3-12.4-4.3-12.4
			l9.3-0.7C76.5,86.5,78.4,95.3,71.4,95.7z"/>
	</g>
</g>
</svg>
